<svg width="32" height="33" viewBox="0 0 32 33" fill="none" xmlns="http://www.w3.org/2000/svg">
<path d="M12.48 8.90725C11.1128 8.90725 10.0073 7.80181 10.0073 6.4345C10.0073 5.06718 11.1127 3.96175 12.48 3.96175C13.8473 3.96175 14.9528 5.06718 14.9528 6.4345C14.9528 7.80181 13.8473 8.90725 12.48 8.90725Z" fill="#FFA32B"/>
<path d="M10.9964 29.0672C10.3854 29.0672 9.89093 28.5727 9.89093 27.9618V20.98H12.1019V27.9618C12.1018 28.5727 11.6072 29.0672 10.9964 29.0672Z" fill="#FFA32B"/>
<path d="M13.9054 29.0672C13.2945 29.0672 12.8 28.5727 12.8 27.9618V20.98H15.0109V27.9618C15.0109 28.5727 14.5164 29.0672 13.9054 29.0672Z" fill="#FFA32B"/>
<path d="M21.7891 19.06C22.9236 19.06 23.8254 18.1582 23.8254 17.0236C23.8254 15.8891 22.9236 14.9872 21.7891 14.9872C20.6545 14.9872 19.7527 15.8891 19.7527 17.0236C19.7527 18.1582 20.6546 19.06 21.7891 19.06Z" fill="#FFA32B"/>
<path d="M18.0654 16.2382C17.8327 15.4527 17.6582 14.7254 17.4254 13.8527C17.2218 13.1255 16.9891 12.4564 16.7854 11.8164C16.4364 10.5654 15.3018 9.66362 13.9927 9.66362H10.9381C9.62906 9.66362 8.46537 10.5364 8.14537 11.8164C7.91262 12.6018 7.65081 13.4164 7.389 14.2891C7.03993 15.3946 6.66175 16.5291 6.37081 17.6346C6.25443 18.1 6.48718 18.5655 6.92356 18.7109C7.01081 18.74 7.12718 18.7691 7.24356 18.7691C7.65081 18.7691 7.99993 18.5073 8.11631 18.1001L9.51268 13.5037L9.71631 12.7473C9.74537 12.6019 9.86175 12.5146 10.0072 12.5146H10.0654C10.2109 12.5727 10.3272 12.7182 10.2691 12.8636C10.1527 13.3291 9.92 14.3472 9.65812 15.54C9.19268 17.5182 8.63993 19.9618 8.37812 21.1546C8.34906 21.2709 8.37812 21.3582 8.43631 21.4455C8.4945 21.5037 8.58175 21.5619 8.66906 21.5619H16.1163C16.2036 21.5619 16.2909 21.5328 16.3491 21.4455C16.4072 21.3582 16.4363 21.2709 16.4072 21.1546C16.1454 19.9618 15.5927 17.5182 15.1272 15.54C14.8363 14.3472 14.6036 13.3291 14.5163 12.8636C14.4872 12.7182 14.5745 12.5436 14.7199 12.5146H14.7781H14.8072C14.9526 12.5146 15.069 12.6018 15.0981 12.7473L15.3017 13.5037L16.4363 17.0237C16.5817 17.4601 17.0472 17.7219 17.5127 17.5764C17.6346 17.5467 17.7224 17.497 17.7843 17.4501C18.0878 17.2201 18.1854 16.745 18.0654 16.2382Z" fill="#FFA32B"/>
<path d="M24.9891 20.6891C24.7563 20.2818 24.3781 19.9327 23.9418 19.7581C23.6509 19.6417 23.36 19.5836 23.04 19.6127C22.5455 19.6127 21.4982 19.6127 21.0328 19.5545C21.0037 19.5545 19.491 19.5545 18.7928 18.2163C18.6182 17.8672 18.2691 17.6927 17.891 17.7509C17.4546 17.8381 17.1928 18.2745 17.28 18.6818C17.28 18.74 17.3091 18.7982 17.3382 18.8564C17.7746 19.8746 18.6473 20.6309 19.7236 20.9218V28.1364C19.7236 28.5727 20.0146 28.9509 20.4218 29.0382C20.8873 29.1546 21.3528 28.8346 21.4691 28.3691C21.4981 28.3109 21.4981 28.2237 21.4981 28.1655V24.2964H22.0218V28.1946C22.0218 28.6892 22.429 29.0674 22.8945 29.0674C23.36 29.0674 23.7673 28.6601 23.7673 28.1946V21.6782C23.7963 21.5618 23.9127 21.5618 23.9709 21.7654C24.1163 22.1436 24.2327 22.4927 24.2618 23.5982C24.2909 23.9472 24.5818 24.2382 24.9309 24.2382H25.0181C25.3963 24.2091 25.6872 23.8891 25.6581 23.5109C25.6 22.4927 25.6 21.7946 24.9891 20.6891Z" fill="#FFA32B"/>
</svg>
