<svg width="32" height="33" viewBox="0 0 32 33" fill="none" xmlns="http://www.w3.org/2000/svg">
<g clip-path="url(#clip0_0_365)">
<path d="M31.7484 10.1779C31.3962 9.79832 30.8027 9.77644 30.4232 10.1288L28.5267 11.8897C28.4961 11.8732 28.4663 11.8576 28.4383 11.8436C28.1774 11.7132 27.8766 11.6784 27.6023 11.8594L27.6399 11.7713C27.6999 11.6306 27.6343 11.4679 27.4936 11.4079C27.3729 11.3565 27.2368 11.3977 27.1624 11.499C27.172 11.4129 27.1774 11.3255 27.1774 11.2368C27.1774 9.94813 26.1328 8.90332 24.844 8.90332C23.5553 8.90332 22.5106 9.948 22.5106 11.2368C22.5106 11.3255 22.5161 11.4129 22.5257 11.499C22.4513 11.3977 22.3152 11.3566 22.1945 11.4079C22.0538 11.4679 21.9883 11.6306 22.0482 11.7713L22.0858 11.8594C21.8115 11.6783 21.5106 11.7131 21.2497 11.8435C21.0516 11.9424 20.7838 12.1008 20.4983 12.3922L17.273 10.2498C16.8417 9.96319 16.2597 10.0807 15.9731 10.5119C15.6866 10.9433 15.804 11.5253 16.2354 11.8119C22.9232 16.2544 22.5498 16.0078 22.596 16.0345C22.3703 17.8788 22.6468 16.3013 21.1237 24.1649C21.0941 24.3176 21.1344 24.4754 21.2333 24.5954C21.3322 24.7154 21.4796 24.7854 21.6351 24.7854C21.7721 24.7854 21.9278 24.7854 22.0984 24.7854L20.9601 30.5876C20.824 31.2809 21.3542 31.9297 22.0655 31.9297C22.5925 31.9297 23.0631 31.5575 23.1684 31.0209L24.3918 24.7854C24.7663 24.7854 25.1464 24.7854 25.5181 24.7854L26.4402 30.9701C26.5235 31.5285 27.0037 31.9295 27.5517 31.9295C28.2432 31.9295 28.7671 31.3158 28.6661 30.6382L27.7934 24.7853C27.8854 24.7853 27.9727 24.7853 28.0529 24.7853C28.2085 24.7853 28.3559 24.7158 28.4549 24.5956C28.5539 24.4755 28.5939 24.3176 28.5642 24.1647C27.0413 16.3018 27.3256 17.9442 27.0642 15.8069L29.4517 13.59C29.5488 13.6102 29.6462 13.6347 29.7437 13.6667C29.7994 13.6849 29.8606 13.6681 29.8992 13.624C29.9378 13.5798 29.9462 13.5169 29.9205 13.4641C29.885 13.391 29.8489 13.3218 29.8126 13.255L31.6995 11.5029C32.0787 11.1507 32.1008 10.5574 31.7484 10.1779ZM25.9463 14.2858C24.9582 14.2858 24.4349 14.2858 23.3488 14.2858L22.1096 13.4626C22.117 13.4594 22.1258 13.4571 22.1328 13.4536C22.3448 13.3477 22.4895 13.1614 22.5503 12.9502L22.5906 13.045C22.6354 13.1503 22.7378 13.2135 22.8455 13.2135C22.8818 13.2135 22.9185 13.2064 22.9539 13.1912C23.0946 13.1313 23.1601 12.9686 23.1002 12.8279L23.0657 12.7469C23.4937 13.2504 24.1313 13.5702 24.8439 13.5702C25.5565 13.5702 26.1941 13.2504 26.6221 12.7469L26.5876 12.8279C26.5276 12.9686 26.5931 13.1313 26.7339 13.1912C26.7693 13.2064 26.8061 13.2135 26.8422 13.2135C26.9499 13.2135 27.0524 13.1503 27.0972 13.045L27.1375 12.9502C27.1541 13.0079 27.1765 13.0637 27.2054 13.1165L25.9463 14.2858Z" fill="white"/>
<path d="M7.44477 13.0233C8.73673 13.0233 9.78408 11.976 9.78408 10.684C9.78408 9.39207 8.73673 8.34473 7.44477 8.34473C6.15281 8.34473 5.10547 9.39207 5.10547 10.684C5.10547 11.976 6.15281 13.0233 7.44477 13.0233Z" fill="white"/>
<path d="M15.0544 8.33284C15.366 7.91385 15.279 7.32166 14.86 7.0101C14.4411 6.69854 13.8488 6.78548 13.5373 7.20454L8.65534 13.7684C8.39378 13.7684 6.40879 13.7684 6.1321 13.7684L1.67581 8.34509C1.34437 7.94185 0.748624 7.88341 0.345188 8.21485C-0.0581857 8.54628 -0.116498 9.14209 0.214938 9.54546L4.92904 15.2826V21.5599L2.22593 30.4651C2.04393 31.0646 2.38243 31.6981 2.98193 31.8801C3.5828 32.0624 4.21542 31.7225 4.39698 31.1241L6.91541 22.8281H7.7941L8.61178 30.9088C8.67484 31.5321 9.23128 31.9864 9.85465 31.9233C10.478 31.8602 10.9322 31.3037 10.8691 30.6804C9.88428 20.9481 9.95271 21.6 9.93671 21.5153V15.2138L15.0544 8.33284Z" fill="white"/>
<path d="M18.451 6.40204C19.9233 6.40204 21.1169 5.20849 21.1169 3.73618C21.1169 2.26386 19.9233 1.07031 18.451 1.07031C16.9787 1.07031 15.7852 2.26386 15.7852 3.73618C15.7852 5.20849 16.9787 6.40204 18.451 6.40204Z" fill="white"/>
</g>
<defs>
<clipPath id="clip0_0_365">
<rect width="32" height="32" fill="white" transform="translate(0 0.5)"/>
</clipPath>
</defs>
</svg>
