<svg width="32" height="33" viewBox="0 0 32 33" fill="none" xmlns="http://www.w3.org/2000/svg">
<g clip-path="url(#clip0_0_383)">
<path d="M27.5865 9.6178C27.5783 7.96918 26.2302 6.62793 24.5815 6.62793C23.9169 6.62793 18.8884 6.62793 18.2247 6.62793C16.9488 6.62793 15.7785 7.3248 15.1705 8.44662L14.2033 10.2312L13.5478 11.4409L11.7187 11.9734C11.497 12.3957 11.1786 12.7591 10.793 13.0347H11.4891C12.3668 13.0347 13.156 13.4266 13.6922 14.044L14.7665 13.7312C15.0866 13.638 15.3667 13.4148 15.528 13.117C16.0117 12.2333 17.1468 10.3412 17.5988 9.59105C17.6226 9.55155 17.6698 9.5328 17.7143 9.54512C17.7587 9.55749 17.7894 9.59799 17.7894 9.64412L17.79 30.9766C17.79 31.8182 18.4722 32.5004 19.3137 32.5004C20.1552 32.5004 20.8375 31.8182 20.8375 30.9766V18.7969H21.4953V30.9766C21.4953 31.8182 22.1775 32.5004 23.019 32.5004C23.8605 32.5004 24.5428 31.8182 24.5428 30.9766C24.5428 10.8241 24.5158 22.3646 24.5152 9.62893C24.5152 9.48224 24.634 9.36324 24.7808 9.36318C24.9275 9.36312 25.0466 9.48205 25.0467 9.6288C25.0467 9.62937 25.0467 9.62999 25.0467 9.63055L25.0935 18.9594C25.0971 19.6586 25.6648 20.2229 26.3632 20.2229C26.3653 20.2229 26.3676 20.2229 26.3697 20.2229C27.071 20.2193 27.6367 19.6479 27.6332 18.9467L27.5865 9.6178Z" fill="#FFA32B"/>
<path d="M9.03787 12.9595C10.3575 12.9595 11.4273 11.8898 11.4273 10.5701C11.4273 9.25045 10.3575 8.18066 9.03787 8.18066C7.71822 8.18066 6.64844 9.25045 6.64844 10.5701C6.64844 11.8898 7.71822 12.9595 9.03787 12.9595Z" fill="#FFA32B"/>
<path d="M6.86389 13.7838C6.53014 13.7838 5.66864 13.7131 4.95645 14.5067C4.61389 14.8883 4.40382 15.3911 4.40107 15.9417C4.40107 15.9417 4.37051 22.0317 4.3672 22.6742C4.36464 23.1803 4.77282 23.5927 5.27895 23.5952C5.28057 23.5952 5.28214 23.5952 5.2837 23.5952C5.78764 23.5952 6.19751 23.188 6.20001 22.6834C6.20376 21.9356 6.22989 16.737 6.23389 15.9508C6.23445 15.8532 6.31382 15.7745 6.41132 15.7748C6.50889 15.775 6.58776 15.8542 6.58776 15.9517V17.1604C6.94532 16.6915 7.08857 16.141 7.12051 15.6166C7.16939 14.8115 6.95839 14.0693 6.86389 13.7838Z" fill="#FFA32B"/>
<path d="M11.4401 18.1184C10.6566 17.4982 10.2619 16.6456 10.1947 15.617C10.1534 14.9858 10.2349 14.3548 10.4036 13.7842H7.63094C7.7995 14.3544 7.88106 14.9854 7.83981 15.617C7.77237 16.6494 7.37519 17.5046 6.58594 18.1253L6.58637 31.3566C6.58637 31.9639 7.07869 32.4562 7.686 32.4562C8.29331 32.4562 8.78562 31.9639 8.78562 31.3566V22.5666H9.2605V31.3566C9.2605 31.9639 9.75281 32.4563 10.3601 32.4563C10.9674 32.4563 11.4598 31.9639 11.4598 31.3566C11.4599 23.0624 11.4401 18.1202 11.4401 18.1184Z" fill="#FFA32B"/>
<path d="M13.6578 15.942C13.656 15.5908 13.5694 15.2592 13.4184 14.9658C13.058 14.2653 12.3278 13.7841 11.4891 13.7841H11.1737C11.0792 14.0698 10.8682 14.8119 10.9172 15.6169C10.9489 16.1371 11.0902 16.683 11.4415 17.1494V15.9517C11.4415 15.8459 11.5272 15.7601 11.6329 15.7599C11.7387 15.7598 11.8247 15.8453 11.825 15.9511C11.825 15.9511 11.8555 22.0153 11.8589 22.6837C11.8614 23.1883 12.2711 23.5955 12.7752 23.5955C12.7767 23.5955 12.7783 23.5955 12.7799 23.5955C13.2861 23.5929 13.6943 23.1806 13.6917 22.6745C13.6879 21.9303 13.6618 16.7356 13.6578 15.942Z" fill="#FFA32B"/>
<path d="M21.1825 5.7635C22.636 5.7635 23.8143 4.58523 23.8143 3.13175C23.8143 1.67827 22.636 0.5 21.1825 0.5C19.7291 0.5 18.5508 1.67827 18.5508 3.13175C18.5508 4.58523 19.7291 5.7635 21.1825 5.7635Z" fill="#FFA32B"/>
</g>
<defs>
<clipPath id="clip0_0_383">
<rect width="32" height="32" fill="white" transform="translate(0 0.5)"/>
</clipPath>
</defs>
</svg>
