<svg width="32" height="33" viewBox="0 0 32 33" fill="none" xmlns="http://www.w3.org/2000/svg">
<g clip-path="url(#clip0_0_407)">
<path d="M18.082 26.343V26.5854V30.6096C18.082 31.3854 18.7123 32.0157 19.4881 32.0157C20.2639 32.0157 20.8942 31.3854 20.8942 30.6096V26.6824L21.4275 23.9187C20.5063 23.8702 19.5851 23.6278 18.6638 23.3369L18.082 26.343Z" fill="#FFA32B"/>
<path d="M25.5488 23.3848C24.6276 23.6757 23.7064 23.8696 22.7852 23.9181L23.6094 30.7545C23.7064 31.4817 24.2882 32.0636 25.1609 31.9666C25.9367 31.8696 26.47 31.1908 26.373 30.4151L25.5488 23.3848Z" fill="#FFA32B"/>
<path d="M25.5517 16.5485H26.4244L26.2305 15.5788L25.4062 15.5303C25.5032 16.1606 25.5517 16.4515 25.5517 16.5485Z" fill="#FFA32B"/>
<path d="M25.0152 12.67L25.694 12.7669V11.7487C25.694 11.7972 26.1789 12.9124 26.3728 13.3003C23.8516 13.0094 23.8516 12.9609 23.6092 13.0578C23.2698 13.1548 22.9789 13.4457 22.9304 13.8336C22.8819 14.3669 23.2213 14.8033 23.7546 14.9003C25.1122 15.0457 27.7789 15.3851 27.8758 15.3851C28.7001 15.2881 28.991 14.6094 28.7486 14.076C25.2092 5.88208 26.4213 8.74268 26.1789 8.11238C26.0334 7.77299 25.8395 7.67602 25.3546 7.43359C24.6273 8.20935 25.0152 12.6215 25.0152 12.67Z" fill="#FFA32B"/>
<path d="M27.4909 21.9786C24.0485 24.015 20.1697 23.9665 16.8242 21.9786L18.6182 13.1059V11.6999C18.0848 12.718 17.2606 14.1241 16.5333 15.0453C16.3879 14.1726 16.1939 13.2999 16 12.5241C18.3758 8.54834 18.1818 7.82107 19.0061 7.38471C20.703 6.56047 22.4 6.36653 24.097 6.89986C23.4182 8.16047 23.4182 10.4393 23.6121 12.5726C23.0303 12.718 22.5939 13.1544 22.497 13.7847C22.4 14.5605 22.9333 15.2393 23.7091 15.3362H23.903C23.9515 15.7726 24.0485 16.209 24.097 16.5483H23.1273C23.1273 16.5968 22.8848 21.4938 22.9333 21.2029H27.297L27.4909 21.9786Z" fill="#FFA32B"/>
<path d="M24.0457 12.5243L24.5305 12.5728C24.3366 10.2456 24.3366 8.01525 24.8699 7.14252C24.7244 7.09404 24.579 7.04556 24.482 6.99707C23.9002 8.16071 23.9002 10.4395 24.0457 12.5243Z" fill="#FFA32B"/>
<path d="M24.4336 15.4336C24.5306 15.9669 24.579 16.4033 24.6275 16.5972H25.1124C25.1124 16.5487 25.0154 16.1124 24.9184 15.4821L24.4336 15.4336Z" fill="#FFA32B"/>
<path d="M27.4423 15.7725C27.3938 16.0149 27.3454 16.3058 27.2969 16.5967H27.7817C27.8302 16.3543 27.8787 16.0634 27.9272 15.8209C27.8787 15.8209 27.8302 15.8209 27.7817 15.8209L27.4423 15.7725Z" fill="#FFA32B"/>
<path d="M9.50031 6.41565C10.9998 6.41565 12.2155 5.20004 12.2155 3.7005C12.2155 2.20097 10.9998 0.985352 9.50031 0.985352C8.00077 0.985352 6.78516 2.20097 6.78516 3.7005C6.78516 5.20004 8.00077 6.41565 9.50031 6.41565Z" fill="#FFA32B"/>
<path d="M22.1566 6.36683C23.6111 6.36683 24.8717 5.15471 24.8717 3.65167C24.8717 2.14864 23.6596 0.936523 22.1566 0.936523C20.6535 0.936523 19.4414 2.14864 19.4414 3.65167C19.4899 5.20319 20.702 6.36683 22.1566 6.36683Z" fill="#FFA32B"/>
<path d="M14.1074 8.7422C13.1377 6.75432 6.93165 5.78463 4.89528 8.59675C2.66498 11.6028 2.13165 16.0634 4.65286 19.2634C5.42862 20.2331 6.88316 19.118 6.1074 18.0998C4.65286 16.2574 4.5074 14.0755 5.28316 11.8937L5.62255 16.2574C5.81649 16.7907 6.1074 17.324 6.49528 17.8574C7.0771 18.5846 6.73771 19.6998 5.91346 20.0392L6.05892 21.6392C6.05892 21.7846 6.15589 21.8816 6.30134 21.9301L5.28316 30.5119C5.08922 32.3543 7.85286 32.6937 8.09528 30.8513L9.16195 21.9301H9.88922L10.1316 26.5846C10.1316 26.6331 10.1316 26.7301 10.1801 26.7786L11.0044 30.9483C11.1498 31.724 11.9256 32.2089 12.6529 32.0634C13.4286 31.918 13.9135 31.1907 13.768 30.4149L12.9438 26.3422L12.7013 21.9301C12.8468 21.9301 12.9923 21.7846 12.9923 21.6392C12.9923 21.5422 12.8953 22.6574 13.671 12.9604C14.2044 14.7543 14.5438 16.8392 14.3983 18.6816C14.3498 19.2149 14.7377 19.6513 15.271 19.6998C15.7074 19.7483 16.2407 19.4089 16.2892 18.8271C16.4832 15.724 15.368 11.2149 14.1074 8.7422Z" fill="#FFA32B"/>
<path d="M28.845 17.0332C28.5541 17.0332 23.5117 17.0332 23.6571 17.0332C23.6571 17.0817 23.4632 20.9605 23.5117 20.7181C23.8996 20.7181 29.0874 20.7181 29.039 20.7181L28.845 17.0332ZM26.2268 18.3423C25.839 18.3423 25.4996 18.2453 25.4996 18.0999C25.4996 17.9544 25.839 17.8574 26.2268 17.8574C26.4208 17.8574 26.9541 17.9059 26.9541 18.0999C26.9541 18.2938 26.4208 18.3423 26.2268 18.3423Z" fill="#FFA32B"/>
</g>
<defs>
<clipPath id="clip0_0_407">
<rect width="32" height="32" fill="white" transform="translate(0 0.5)"/>
</clipPath>
</defs>
</svg>
