<svg width="32" height="33" viewBox="0 0 32 33" fill="none" xmlns="http://www.w3.org/2000/svg">
<path d="M23.904 20.6221C23.0313 20.6221 22.2556 20.7675 21.6737 21.0099C21.7222 21.2524 21.7707 21.4948 21.7222 21.7372C21.6253 22.4645 21.1889 23.0463 20.5586 23.3372V28.4281C23.0313 29.4463 25.3101 29.5918 27.2495 28.4281V22.0766C27.2495 22.0281 27.2495 22.0281 27.2495 21.9796C27.104 21.2039 25.6495 20.6221 23.904 20.6221Z" fill="#FFA32B"/>
<path d="M12.899 21.6885C12.5111 22.7551 11.7353 23.5309 10.7656 23.9673L11.5899 27.9915C11.7838 28.9127 11.3959 29.8824 10.8141 30.3188L11.9777 30.4642C13.2868 30.6097 14.4505 29.4461 14.1596 28.0885L12.899 21.6885Z" fill="#FFA32B"/>
<path d="M12.8494 9.17919C14.6918 9.17919 16.1948 7.67616 16.1948 5.83374C16.1948 3.99131 14.6918 2.48828 12.8494 2.48828C11.0069 2.48828 9.50391 3.99131 9.50391 5.83374C9.50391 7.67616 11.0069 9.17919 12.8494 9.17919Z" fill="#FFA32B"/>
<path d="M11.1045 28.1368L10.2317 23.6762C11.3954 23.2883 12.3166 22.3671 12.559 21.1065L12.7529 20.2822C9.89233 17.5186 8.92264 14.0762 8.87415 13.8337C8.58324 12.7671 9.21355 11.6519 10.2802 11.361C11.3469 11.0701 12.462 11.7004 12.7529 12.7671C12.8014 12.864 13.0923 13.9792 13.8681 15.2398L14.2075 13.7853C14.5954 11.8943 13.4317 10.0519 11.5408 9.61556C9.64991 9.22768 7.80749 10.3913 7.37112 12.2822L5.77112 19.6034C5.67415 20.1368 5.67415 20.6216 5.77112 21.1065C5.77112 21.3004 5.72264 21.4943 5.77112 21.7368L6.64385 26.1974L2.71658 25.7125C1.60142 25.5671 0.631727 26.3428 0.486272 27.458C0.340818 28.5731 1.11658 29.5428 2.23173 29.6883C9.26203 30.5125 8.92264 30.5125 9.11658 30.5125C10.4257 30.5125 11.3469 29.3489 11.1045 28.1368Z" fill="#FFA32B"/>
<path d="M21.1901 21.6394C21.2871 20.8152 20.7052 20.0879 19.881 19.991C14.0628 19.2637 12.3174 13.1546 12.2204 12.9122C12.0265 12.1364 11.2022 11.6516 10.378 11.8455C9.55373 12.0394 9.11737 12.8637 9.3113 13.6879C9.40827 14.0273 11.6386 22.0273 19.4931 22.9485C20.3659 23.0455 21.0931 22.4637 21.1901 21.6394Z" fill="#FFA32B"/>
<path d="M29.7698 13.6398V8.40343L25.6971 2.48828L21.6244 8.45192V13.6398H19.8789V18.4398H24.1456V17.0337C24.1456 16.161 24.8728 15.4337 25.7456 15.4337C26.1819 15.4337 26.5698 15.6277 26.8607 15.9186C27.1516 16.2095 27.3456 16.5974 27.3456 17.0337V18.4398H31.5153V13.6398H29.7698Z" fill="#FFA32B"/>
</svg>
