<svg width="32" height="32" viewBox="0 0 32 32" fill="none" xmlns="http://www.w3.org/2000/svg">
<circle cx="16" cy="16" r="16" fill="#FFA32B"/>
<g clip-path="url(#clip0_0_139)">
<path d="M12.3472 18.7992C12.1252 18.5682 11.7364 18.5394 11.4826 18.7321L11.4759 18.7278L10.9016 19.3022C10.7756 19.4277 10.7066 19.5952 10.7066 19.7733C10.699 20.132 11.0148 20.4471 11.3731 20.4398C11.5817 20.4432 11.7675 20.3389 11.9035 20.1856L12.3472 19.7419C12.4402 19.649 12.5026 19.5332 12.5285 19.4073C12.5749 19.1895 12.5062 18.9559 12.3472 18.7992Z" fill="white"/>
<path d="M10.7497 16.8466C10.4897 16.5866 10.0673 16.5869 9.807 16.8466C9.7465 16.9075 9.3735 17.2802 9.30445 17.3496C8.70489 18.0003 9.59574 18.8915 10.2468 18.2923C10.2468 18.2923 10.6829 17.8561 10.7497 17.7894C11.0098 17.5296 11.0098 17.1067 10.7497 16.8466Z" fill="white"/>
<path d="M13.7101 20.3193C13.532 20.3193 13.3645 20.3888 13.2385 20.5147L12.7356 21.0176C12.7332 21.02 12.7309 21.0224 12.7285 21.0251C12.4765 21.2741 12.4803 21.715 12.7356 21.9604C12.9957 22.2201 13.4186 22.2201 13.6783 21.9604L14.1816 21.457C14.5985 21.0412 14.2988 20.3171 13.7101 20.3193Z" fill="white"/>
<path d="M18.1831 12.9209C17.1541 13.5697 15.7744 13.4466 14.8788 12.5509L13.7128 11.3854L15.1679 9.93033C13.6051 8.17653 10.857 8.06527 9.19343 9.7401C7.52088 11.4013 7.62809 14.1461 9.37821 15.7094C10.6527 14.9971 12.22 15.992 12.1169 17.4434C12.9608 17.5346 13.6753 18.2995 13.714 19.1437C14.5076 19.1267 15.2959 19.721 15.4891 20.505C16.1498 20.3279 16.8903 20.5472 17.3428 21.0707L17.3561 21.055C18.0121 21.4488 18.7061 20.6399 18.2113 20.0507L18.2125 20.0491C18.2023 20.0393 15.5633 17.4002 15.5633 17.4002C15.7707 17.1929 16.188 16.7755 16.3954 16.5682L19.0144 19.1872C19.665 19.7866 20.5564 18.8952 19.9567 18.2445L17.3381 15.6255C17.5454 15.4181 17.9628 15.0007 18.1702 14.7934C18.7588 15.382 20.1868 16.81 20.7892 17.4124C21.0372 17.6708 21.4838 17.6707 21.7319 17.4124C21.9916 17.1523 21.9916 16.7294 21.7319 16.4697L18.1831 12.9209Z" fill="white"/>
<path d="M22.8065 9.74006C21.2117 8.14573 18.617 8.14573 17.0223 9.74006C16.7122 10.0503 15.6702 11.0926 15.3774 11.3854L15.7108 11.7188C16.2907 12.2987 17.2338 12.2987 17.8132 11.7188L18.2294 11.3026C18.4507 11.5263 22.513 15.5817 22.6272 15.7039C24.3731 14.14 24.4765 11.3991 22.8065 9.74006Z" fill="white"/>
<path d="M16.4295 21.8164C16.1694 21.5566 15.7468 21.5563 15.4868 21.8164L14.9839 22.3193C14.7251 22.5674 14.7252 23.0139 14.9839 23.262C15.2323 23.5202 15.6783 23.5201 15.9266 23.262L16.4295 22.7591C16.6878 22.5113 16.6878 22.0636 16.4295 21.8164Z" fill="white"/>
</g>
<defs>
<clipPath id="clip0_0_139">
<rect width="16" height="16" fill="white" transform="translate(8 8)"/>
</clipPath>
</defs>
</svg>
