<svg width="33" height="32" viewBox="0 0 33 32" fill="none" xmlns="http://www.w3.org/2000/svg">
<circle cx="16.5" cy="16" r="16" fill="#FFA32B"/>
<path fill-rule="evenodd" clip-rule="evenodd" d="M14.5118 14.5699C15.3272 16.9493 17.6735 16.9493 18.4883 14.5691L18.4891 14.5732C19.4354 14.6229 19.9156 12.5756 18.7643 13.0034C18.7517 13.2906 18.7227 13.5593 18.6794 13.8093C17.4804 13.7612 16.2076 12.9053 14.8608 11.2418C14.6318 11.5824 14.4234 12.1696 14.2357 13.0034C13.0844 12.5756 13.5645 14.6229 14.511 14.5732L14.5118 14.5699ZM18.2811 16.841C18.4068 16.8722 18.5384 16.9028 18.674 16.9337V16.9338V19.0061C18.6138 19.035 18.5592 19.074 18.5123 19.1207L18.5114 19.1218C18.4051 19.2281 18.3392 19.3748 18.3392 19.5363C18.3392 19.698 18.405 19.8446 18.5114 19.951L18.5123 19.9521C18.6187 20.0582 18.7654 20.1242 18.9269 20.1242C19.0886 20.1242 19.2352 20.0582 19.3416 19.9521L19.3427 19.951C19.4489 19.8446 19.5148 19.698 19.5148 19.5363C19.5148 19.3741 19.4489 19.2271 19.3426 19.1208H19.3416C19.2948 19.0741 19.2401 19.0352 19.1799 19.0061V17.0492C19.9995 17.2414 20.8714 17.4895 21.4102 18.0006C22.3681 18.9101 22.5867 20.4818 22.844 21.8593C22.4733 22.3453 21.9047 22.6233 21.3111 22.6321L21.335 22.6315L21.1044 19.8872C21.0929 19.7481 20.9708 19.6446 20.8316 19.6561C20.6925 19.6674 20.5889 19.7896 20.6005 19.9288L20.8231 22.5778L20.8223 22.5775C20.4658 23.2307 18.9089 23.7188 17.0206 23.7955V21.7673L16.5498 20.4415L18.2811 16.841ZM16.5 23.806C14.383 23.806 12.5666 23.2897 12.1777 22.5776L12.4003 19.9287C12.4118 19.7896 12.3083 19.6673 12.1692 19.656C12.0301 19.6444 11.9079 19.748 11.8965 19.8871L11.6658 22.6314L11.6897 22.632C11.0959 22.6235 10.5269 22.3455 10.156 21.8592C10.4133 20.4818 10.6319 18.91 11.5898 18.0005C12.1286 17.4889 13.0005 17.2413 13.8201 17.0492V18.8575C13.5223 18.877 13.2531 19.0067 13.0532 19.2062L13.0528 19.2068L13.0522 19.2072C12.8352 19.4247 12.7008 19.7237 12.7008 20.0526V20.8741C12.7008 21.0136 12.8141 21.1269 12.9538 21.1269C13.0934 21.1269 13.2067 21.0136 13.2067 20.8741V20.0526C13.2067 19.8615 13.2841 19.6886 13.4088 19.5639L13.4099 19.5628C13.5346 19.4382 13.7075 19.3607 13.8986 19.3607H14.2476C14.4385 19.3607 14.6114 19.4382 14.7362 19.5628V19.5639C14.8616 19.6893 14.9393 19.8623 14.9393 20.0526V20.8534C14.9393 20.9931 15.0526 21.1064 15.1923 21.1064C15.3319 21.1064 15.4452 20.9931 15.4452 20.8534V20.0526C15.4452 19.7225 15.3107 19.4231 15.0938 19.2062L15.0933 19.2068C14.8933 19.0069 14.624 18.8769 14.3259 18.8574V16.9338V16.9337C14.4617 16.9028 14.5935 16.8725 14.719 16.841L16.5 21.857V23.806ZM16.236 8.81997C16.236 8.67619 16.3526 8.55969 16.4963 8.55969C16.6401 8.55969 16.7566 8.67622 16.7566 8.81997V9.04078H16.9774C17.1212 9.04078 17.2377 9.15734 17.2377 9.30106C17.2377 9.44484 17.1212 9.56131 16.9774 9.56131H16.7566V9.78222C16.7566 9.92594 16.64 10.0425 16.4963 10.0425C16.3526 10.0425 16.236 9.92594 16.236 9.78222V9.56131H16.0152C15.8714 9.56131 15.7549 9.44484 15.7549 9.30106C15.7549 9.15734 15.8714 9.04078 16.0152 9.04078H16.236V8.81997ZM13.6127 8.95487C15.4013 7.9405 17.5913 7.9405 19.3799 8.95487L18.3769 10.408H14.6157L13.6127 8.95487ZM18.9752 16.4692C20.0998 15.9313 20.7298 15.0519 20.5681 13.816C20.4372 12.6831 19.9368 11.273 19.1468 10.2091L18.6501 10.9286H14.3425L13.8494 10.2141C13.0617 11.2775 12.5627 12.685 12.432 13.816C12.2695 15.0576 12.9296 15.9262 14.0736 16.458C14.2474 16.4184 14.4177 16.3793 14.5817 16.3386C14.6281 16.3245 14.7358 16.2913 14.7588 16.2698C14.7811 16.2432 14.795 16.1696 14.8036 16.0924C15.2472 16.5636 15.8327 16.8752 16.5008 16.8751C17.1613 16.875 17.751 16.5674 18.1966 16.0934C18.2052 16.1702 18.2192 16.2434 18.2414 16.2698C18.2643 16.2912 18.3721 16.3245 18.4184 16.3385C18.5977 16.3832 18.7845 16.4257 18.9752 16.4692Z" fill="white"/>
</svg>
