<svg width="32" height="32" viewBox="0 0 32 32" fill="none" xmlns="http://www.w3.org/2000/svg">
<circle cx="16" cy="16" r="16" fill="#FFA32B"/>
<g clip-path="url(#clip0_0_107)">
<path d="M21.9089 12.1286C23.0465 12.1286 23.9688 11.2044 23.9688 10.0643C23.9688 8.92421 23.0465 8 21.9089 8C20.7712 8 19.8489 8.92421 19.8489 10.0643C19.8489 11.2044 20.7712 12.1286 21.9089 12.1286Z" fill="white"/>
<path d="M19.2311 19.5739H20.5563V20.9018H19.2311V19.5739Z" fill="white"/>
<path d="M16.819 12.3514C17.076 12.1229 17.4068 11.9971 17.7504 11.9971C18.0939 11.9971 18.4247 12.1229 18.6817 12.3514L19.0511 12.6797V11.5067C19.0511 9.5757 17.4834 8.00476 15.5565 8.00476C13.8686 8.00476 12.4564 9.21017 12.132 10.807C12.6626 11.6146 13.5925 13.1932 13.9902 14.8661L16.819 12.3514Z" fill="white"/>
<path d="M23.5322 23.0564H22.886V18.5956L23.1905 18.8663C23.2796 18.9455 23.3904 18.9844 23.5008 18.9844C23.6299 18.9844 23.7585 18.9311 23.8509 18.8267C24.0224 18.633 24.0047 18.3367 23.8114 18.1649L22.4399 16.9457V14.516C22.4399 14.2571 22.2305 14.0472 21.9721 14.0472C21.7137 14.0472 21.5042 14.2571 21.5042 14.516V16.1139L18.0608 13.0528C17.8836 12.8953 17.617 12.8953 17.4398 13.0528L11.6892 18.1648C11.4959 18.3366 11.4783 18.633 11.6497 18.8266C11.8212 19.0204 12.1169 19.038 12.3101 18.8662L12.6146 18.5955V23.0564H11.1047V21.011C11.3046 20.9498 11.4969 20.8493 11.679 20.7115V19.8847C11.3993 19.8189 11.1437 19.6679 10.9498 19.4489C10.4362 18.8688 10.4894 17.9781 11.0683 17.4635L13.1799 15.5863C12.8245 13.314 11.0949 10.9448 11.0132 10.834C10.925 10.7144 10.7854 10.6438 10.6369 10.6438C10.4885 10.6438 10.3489 10.7144 10.2607 10.834C10.1696 10.9575 8.03009 13.8879 8.03009 16.3616C8.03009 17.569 8.27038 18.7115 8.70669 19.5787C9.09156 20.3436 9.59978 20.837 10.1691 21.0111V23.0564H8.46784C8.20947 23.0564 8 23.2663 8 23.5252C8 23.7841 8.20947 23.994 8.46784 24H22.886H23.5322C23.7906 23.994 24 23.7841 24 23.5252C24 23.2663 23.7905 23.0564 23.5322 23.0564ZM18.2954 19.105C18.2954 18.8461 18.5049 18.6362 18.7633 18.6362H21.0241C21.2825 18.6362 21.492 18.8461 21.492 19.105V21.3706C21.492 21.6295 21.2825 21.8395 21.0241 21.8395H18.7633C18.5049 21.8395 18.2954 21.6295 18.2954 21.3706V19.105ZM15.7336 23.0564V19.5739H14.7979V23.0564H13.8622V19.105C13.8622 18.8461 14.0717 18.6362 14.3301 18.6362H16.2014C16.4598 18.6362 16.6693 18.8461 16.6693 19.105V23.0564H15.7336Z" fill="white"/>
</g>
<defs>
<clipPath id="clip0_0_107">
<rect width="16" height="16" fill="white" transform="translate(8 8)"/>
</clipPath>
</defs>
</svg>
