<svg width="32" height="32" viewBox="0 0 32 32" fill="none" xmlns="http://www.w3.org/2000/svg">
<circle cx="16" cy="16" r="16" fill="#FFA32B"/>
<g clip-path="url(#clip0_0_160)">
<path fill-rule="evenodd" clip-rule="evenodd" d="M23.1666 12C23.1666 11.16 22.8333 10.3547 22.2393 9.76071C21.6453 9.16671 20.84 8.83337 20 8.83337H12C11.16 8.83337 10.3546 9.16671 9.76065 9.76071C9.16665 10.3547 8.83331 11.16 8.83331 12V20C8.83331 20.84 9.16665 21.6454 9.76065 22.2394C10.3546 22.8334 11.16 23.1667 12 23.1667H20C20.84 23.1667 21.6453 22.8334 22.2393 22.2394C22.8333 21.6454 23.1666 20.84 23.1666 20V12ZM16.3253 13.442L14.7253 18.242C14.6386 18.504 14.78 18.7874 15.042 18.8747C15.304 18.9614 15.5873 18.82 15.6746 18.558L17.2746 13.758C17.3613 13.496 17.22 13.2127 16.958 13.1254C16.696 13.0387 16.4126 13.18 16.3253 13.442ZM18.0466 14.7534L19.2926 16L18.0466 17.2467C17.8513 17.4414 17.8513 17.7587 18.0466 17.9534C18.2413 18.1487 18.5586 18.1487 18.7533 17.9534L20.3533 16.3534C20.5486 16.158 20.5486 15.842 20.3533 15.6467L18.7533 14.0467C18.5586 13.8514 18.2413 13.8514 18.0466 14.0467C17.8513 14.2414 17.8513 14.5587 18.0466 14.7534ZM13.2466 14.0467L11.6466 15.6467C11.4513 15.842 11.4513 16.158 11.6466 16.3534L13.2466 17.9534C13.4413 18.1487 13.7586 18.1487 13.9533 17.9534C14.1486 17.7587 14.1486 17.4414 13.9533 17.2467L12.7073 16L13.9533 14.7534C14.1486 14.5587 14.1486 14.2414 13.9533 14.0467C13.7586 13.8514 13.4413 13.8514 13.2466 14.0467Z" fill="white"/>
</g>
<defs>
<clipPath id="clip0_0_160">
<rect width="16" height="16" fill="white" transform="translate(8 8)"/>
</clipPath>
</defs>
</svg>
