<svg width="32" height="32" viewBox="0 0 32 32" fill="none" xmlns="http://www.w3.org/2000/svg">
<circle cx="16" cy="16" r="16" fill="white"/>
<g clip-path="url(#clip0_0_64)">
<path fill-rule="evenodd" clip-rule="evenodd" d="M15.3257 16.5993L14.2329 15.547C14.1781 15.4909 14.1126 15.4464 14.0402 15.4162C13.9679 15.3859 13.8902 15.3705 13.8118 15.3708C13.7334 15.3711 13.6558 15.3871 13.5837 15.418C13.5116 15.4488 13.4464 15.4938 13.392 15.5503C13.3376 15.6068 13.2951 15.6736 13.267 15.7468C13.239 15.82 13.2258 15.8981 13.2285 15.9765C13.2311 16.0549 13.2495 16.1319 13.2825 16.2031C13.3154 16.2742 13.3623 16.338 13.4204 16.3907L14.9266 17.8415C15.0369 17.9483 15.1848 18.0074 15.3384 18.0061C15.492 18.0047 15.6388 17.943 15.7473 17.8343L18.5878 14.9937C18.6977 14.8838 18.7595 14.7348 18.7595 14.5794C18.7595 14.424 18.6977 14.2749 18.5878 14.165C18.478 14.0551 18.3289 13.9934 18.1735 13.9934C18.0181 13.9934 17.869 14.0551 17.7591 14.165L15.3258 16.5993H15.3257ZM16.0402 6.00037C16.385 6.00989 16.7131 6.15106 16.9571 6.3949L18.1573 7.59591C18.1786 7.62016 18.2066 7.63759 18.2378 7.64602C18.269 7.65445 18.302 7.65352 18.3327 7.64333L19.9733 7.20392C20.3199 7.11121 20.6892 7.15989 21 7.33928C21.3108 7.51867 21.5376 7.81409 21.6307 8.16064L22.0702 9.80126C22.0767 9.83275 22.0923 9.86164 22.115 9.88438C22.1377 9.90712 22.1666 9.92271 22.1981 9.92923L23.8395 10.3687C24.1857 10.4622 24.4809 10.6891 24.6602 10.9998C24.8395 11.3104 24.8884 11.6795 24.7962 12.0261L24.3559 13.6667C24.346 13.6974 24.3453 13.7303 24.3537 13.7614C24.3621 13.7925 24.3793 13.8206 24.4033 13.8421L25.6041 15.0431C25.8577 15.2969 26.0001 15.641 26.0001 15.9998C26.0001 16.3585 25.8577 16.7026 25.6041 16.9565L24.4031 18.1575C24.3792 18.1791 24.362 18.2071 24.3535 18.2382C24.3451 18.2693 24.3459 18.3022 24.3557 18.3329L24.796 19.9735C24.8883 20.3202 24.8394 20.6892 24.66 20.9999C24.4807 21.3106 24.1856 21.5375 23.8393 21.631L22.198 22.0704C22.1665 22.0769 22.1376 22.0925 22.1148 22.1153C22.0921 22.138 22.0765 22.1669 22.07 22.1984L21.6305 23.839C21.5375 24.1855 21.3106 24.481 20.9998 24.6603C20.689 24.8397 20.3198 24.8884 19.9731 24.7957L18.3325 24.3563C18.3018 24.3461 18.2689 24.3451 18.2377 24.3536C18.2065 24.362 18.1785 24.3794 18.1571 24.4037L16.957 25.6042C16.7029 25.8576 16.3587 25.9998 15.9998 25.9998C15.641 25.9998 15.2968 25.8576 15.0427 25.6042L13.8418 24.4032C13.8206 24.3791 13.7927 24.3618 13.7617 24.3533C13.7307 24.3449 13.6978 24.3458 13.6673 24.3558L12.0264 24.7952C11.6798 24.8879 11.3105 24.8392 10.9998 24.6598C10.689 24.4805 10.4622 24.1851 10.3691 23.8385L9.92957 22.1979C9.92304 22.1664 9.90742 22.1375 9.88465 22.1147C9.86187 22.092 9.83293 22.0764 9.8014 22.0699L8.16078 21.6305C7.81439 21.5371 7.51914 21.3102 7.33975 20.9996C7.16036 20.6889 7.11145 20.3197 7.20375 19.9731L7.64355 18.3326C7.65374 18.302 7.65469 18.269 7.64629 18.2378C7.63788 18.2066 7.6205 18.1786 7.59629 18.1572L6.39558 16.9563C6.14212 16.7025 5.99976 16.3584 5.99976 15.9996C5.99976 15.6409 6.14212 15.2968 6.39558 15.0429L7.59676 13.8419C7.62083 13.8205 7.6381 13.7924 7.64642 13.7612C7.65475 13.7301 7.65378 13.6972 7.64363 13.6665L7.20383 12.0259C7.11154 11.6792 7.16046 11.3101 7.33985 10.9994C7.51924 10.6888 7.81448 10.4619 8.16086 10.3685L9.80148 9.92904C9.83301 9.92256 9.86195 9.90698 9.88472 9.88424C9.9075 9.8615 9.92312 9.83259 9.92965 9.80107L10.3691 8.16064C10.4623 7.81414 10.6891 7.51878 10.9999 7.3394C11.3106 7.16002 11.6798 7.11129 12.0265 7.20392L13.6674 7.64333C13.6979 7.65352 13.7308 7.65445 13.7618 7.64601C13.7929 7.63757 13.8207 7.62014 13.8419 7.59591L15.0429 6.39505C15.2869 6.15118 15.6149 6.00996 15.9598 6.00037H16.0402ZM15.9995 20.359C15.1373 20.359 14.2945 20.1033 13.5776 19.6243C12.8607 19.1453 12.3019 18.4644 11.972 17.6678C11.642 16.8713 11.5557 15.9947 11.7239 15.1491C11.8921 14.3035 12.3073 13.5267 12.917 12.917C13.5267 12.3074 14.3034 11.8922 15.1491 11.724C15.9947 11.5558 16.8712 11.6421 17.6678 11.972C18.4644 12.302 19.1452 12.8607 19.6242 13.5776C20.1032 14.2945 20.3589 15.1374 20.3589 15.9996C20.3577 17.1554 19.898 18.2635 19.0808 19.0808C18.2635 19.8981 17.1553 20.3578 15.9995 20.359Z" fill="#36B64B"/>
</g>
<defs>
<clipPath id="clip0_0_64">
<rect width="20" height="20" fill="white" transform="translate(6 6)"/>
</clipPath>
</defs>
</svg>
