<svg width="32" height="32" viewBox="0 0 32 32" fill="none" xmlns="http://www.w3.org/2000/svg">
<circle cx="16" cy="16" r="16" fill="white"/>
<g clip-path="url(#clip0_0_71)">
<path d="M22.1198 24.943C22.2913 24.943 22.4605 25.0083 22.5892 25.1326C23.412 25.9271 24.6123 26.1917 25.6793 25.8606C24.9926 24.43 24.8974 22.7911 25.4296 21.2736C26.09 19.3856 26.2555 17.4932 25.5039 15.5953C24.8436 13.928 23.5694 12.5428 21.9567 11.7529C22.0559 12.2818 22.1059 12.8208 22.1059 13.3654C22.106 15.677 21.2171 17.8511 19.6031 19.4874C17.989 21.1238 15.8252 22.044 13.5105 22.0784C13.0805 22.0851 12.6523 22.0598 12.2291 22.004C13.5012 24.2339 15.9004 25.6861 18.5368 25.7253C19.6902 25.7431 20.7975 25.5014 21.8288 25.009C21.9217 24.9646 22.0211 24.943 22.1198 24.943Z" fill="#36B64B"/>
<path d="M13.5296 6.00147C9.42332 5.91993 6.00991 9.24182 6.00001 13.3472C5.99758 14.3502 6.19337 15.3227 6.58199 16.2377C6.58763 16.251 6.59288 16.2645 6.59763 16.2782C7.12976 17.7956 7.03466 19.4345 6.34793 20.8651C7.41501 21.1961 8.61511 20.9317 9.43798 20.1371C9.6407 19.9412 9.94402 19.8919 10.1984 20.0135C11.2295 20.506 12.337 20.7484 13.4903 20.7298C17.5644 20.6693 20.7557 17.4344 20.7557 13.3653C20.7557 9.38493 17.5141 6.08157 13.5296 6.00147ZM9.44243 14.4653C8.85248 14.4653 8.37421 13.9878 8.37421 13.3988C8.37421 12.8099 8.85248 12.3324 9.44243 12.3324C10.0324 12.3324 10.5107 12.8099 10.5107 13.3988C10.5106 13.9878 10.0324 14.4653 9.44243 14.4653ZM13.3779 14.4653C12.7879 14.4653 12.3097 13.9878 12.3097 13.3988C12.3097 12.8099 12.7879 12.3324 13.3779 12.3324C13.9678 12.3324 14.4461 12.8099 14.4461 13.3988C14.4461 13.9878 13.9678 14.4653 13.3779 14.4653ZM17.3134 14.4653C16.7234 14.4653 16.2452 13.9878 16.2452 13.3988C16.2452 12.8099 16.7234 12.3324 17.3134 12.3324C17.9033 12.3324 18.3816 12.8099 18.3816 13.3988C18.3816 13.9878 17.9033 14.4653 17.3134 14.4653Z" fill="#36B64B"/>
</g>
<defs>
<clipPath id="clip0_0_71">
<rect width="20" height="20" fill="white" transform="translate(6 6)"/>
</clipPath>
</defs>
</svg>
