<svg width="32" height="32" viewBox="0 0 32 32" fill="none" xmlns="http://www.w3.org/2000/svg">
<circle cx="16" cy="16" r="16" fill="white"/>
<g clip-path="url(#clip0_0_80)">
<path d="M16 14.0715C17.8769 14.0715 19.3984 12.55 19.3984 10.6731C19.3984 8.79619 17.8769 7.27466 16 7.27466C14.1231 7.27466 12.6016 8.79619 12.6016 10.6731C12.6016 12.55 14.1231 14.0715 16 14.0715Z" fill="#36B64B"/>
<path d="M22.875 14.0715C24.0615 14.0715 25.0234 13.1096 25.0234 11.9231C25.0234 10.7365 24.0615 9.77466 22.875 9.77466C21.6885 9.77466 20.7266 10.7365 20.7266 11.9231C20.7266 13.1096 21.6885 14.0715 22.875 14.0715Z" fill="#36B64B"/>
<path d="M9.125 14.0715C10.3115 14.0715 11.2734 13.1096 11.2734 11.9231C11.2734 10.7365 10.3115 9.77466 9.125 9.77466C7.93845 9.77466 6.97656 10.7365 6.97656 11.9231C6.97656 13.1096 7.93845 14.0715 9.125 14.0715Z" fill="#36B64B"/>
<path d="M11.2418 16.0008C10.3961 15.3079 9.6302 15.3996 8.65234 15.3996C7.18984 15.3996 6 16.5825 6 18.036V22.302C6 22.9332 6.51523 23.4465 7.14883 23.4465C9.88422 23.4465 9.55469 23.496 9.55469 23.3286C9.55469 20.3057 9.19664 18.0888 11.2418 16.0008Z" fill="#36B64B"/>
<path d="M16.9301 15.4152C15.2221 15.2728 13.7375 15.4169 12.457 16.4738C10.3142 18.1902 10.7266 20.5013 10.7266 23.3285C10.7266 24.0765 11.3352 24.6965 12.0945 24.6965C20.3399 24.6965 20.6681 24.9625 21.157 23.8797C21.3174 23.5135 21.2734 23.6299 21.2734 20.127C21.2734 17.3447 18.8643 15.4152 16.9301 15.4152Z" fill="#36B64B"/>
<path d="M23.3477 15.3997C22.3645 15.3997 21.6028 15.3089 20.7582 16.0008C22.7881 18.0733 22.4453 20.1389 22.4453 23.3286C22.4453 23.4971 22.1718 23.4465 24.8102 23.4465C25.4664 23.4465 26 22.9149 26 22.2614V18.036C26 16.5825 24.8102 15.3997 23.3477 15.3997Z" fill="#36B64B"/>
</g>
<defs>
<clipPath id="clip0_0_80">
<rect width="20" height="20" fill="white" transform="translate(6 6)"/>
</clipPath>
</defs>
</svg>
