<svg width="32" height="32" viewBox="0 0 32 32" fill="none" xmlns="http://www.w3.org/2000/svg">
<circle cx="16" cy="16" r="16" fill="white"/>
<g clip-path="url(#clip0_0_48)">
<path d="M17.4263 9.85303C18.393 9.85303 19.1766 9.08256 19.1766 8.13214C19.1766 7.18172 18.393 6.41125 17.4263 6.41125C16.4597 6.41125 15.6761 7.18172 15.6761 8.13214C15.6761 9.08256 16.4597 9.85303 17.4263 9.85303Z" fill="#36B64B"/>
<path d="M21.392 19.6536C21.392 19.6536 17.9781 17.9262 14.6243 19.2022C14.4246 18.6131 14.0471 14.9867 16.2817 13.3139C17.2451 12.5924 17.7378 13.0434 20.6603 10.8014C22.8697 9.10704 23.5484 7.37311 23.6023 7.22278C23.6462 7.90967 23.4365 10.6967 20.016 13.1709C19.0074 13.9002 16.8415 14.5516 16.3559 17.1884C17.4262 17.1737 20.2675 17.2523 21.392 19.6536Z" fill="#36B64B"/>
<path d="M12.5327 13.9561C11.1468 14.3662 9.93411 15.2083 9.07761 16.3554C8.22112 17.5025 7.76727 18.8923 7.78453 20.3153C7.82597 23.7738 10.8094 26.7262 14.3248 26.7902C15.8284 26.8176 17.2974 26.3447 18.4933 25.4481C19.6892 24.5516 20.5419 23.2841 20.9132 21.8512C20.9436 21.7312 20.9467 21.606 20.922 21.4848C20.8974 21.3635 20.8457 21.249 20.7707 21.1498C20.6957 21.0505 20.5992 20.9688 20.4882 20.9106C20.3772 20.8524 20.2544 20.8191 20.1288 20.8131C19.9341 20.8033 19.7419 20.8597 19.5846 20.973C19.4272 21.0862 19.3145 21.2493 19.2653 21.4348C18.9937 22.4874 18.3731 23.4209 17.5014 24.0877C16.6297 24.7545 15.5569 25.1166 14.4524 25.1166C11.6953 25.1166 9.44902 22.8758 9.48922 20.1633C9.50498 19.1272 9.85555 18.1229 10.4902 17.2957C11.1248 16.4685 12.0107 15.8612 13.0196 15.5616C13.2189 15.5033 13.3898 15.3754 13.5 15.2019C13.6102 15.0285 13.6523 14.8215 13.6183 14.6197C13.5982 14.5025 13.553 14.3909 13.4856 14.2922C13.4183 14.1934 13.3304 14.1099 13.2277 14.0472C13.1251 13.9844 13.01 13.9438 12.8902 13.9281C12.7704 13.9124 12.6485 13.9219 12.5327 13.9561Z" fill="#36B64B"/>
<path d="M23.5616 6.96088C23.5616 6.96088 23.2301 6.58851 23.267 6.21451C23.3039 5.84051 23.5239 5.49177 23.4435 5.20862C23.4435 5.20862 24.1065 5.4718 24.0452 6.16562C24.0067 6.61377 23.6661 6.90791 23.6661 6.90791C23.6661 6.90791 23.4498 6.35017 23.6399 5.83073C23.6399 5.83073 23.3992 6.16277 23.5616 6.96088Z" fill="#13A538"/>
<path d="M22.8669 7.90365C22.8669 7.90365 22.5333 7.71298 22.4666 7.43228C22.3999 7.15157 22.4732 6.8452 22.3444 6.6582C22.3444 6.6582 22.8901 6.69039 23.0198 7.20861C23.1026 7.54391 22.9294 7.83968 22.9294 7.83968C22.9294 7.83968 22.6336 7.48646 22.6419 7.06317C22.6419 7.06357 22.5499 7.36302 22.8669 7.90365Z" fill="#13A538"/>
<path d="M23.8674 7.89262C23.8674 7.89262 24.2317 8.0177 24.4919 7.88529C24.7521 7.75288 24.9419 7.49866 25.1694 7.47381C25.1694 7.47381 24.7898 7.08636 24.305 7.32633C23.9913 7.48155 23.8757 7.80381 23.8757 7.80381C23.8757 7.80381 24.341 7.79566 24.663 7.51455C24.663 7.51455 24.4915 7.77773 23.8674 7.89262Z" fill="#13A538"/>
<path d="M24.1307 6.87413C24.1307 6.87413 24.4299 6.9772 24.6433 6.86842C24.8567 6.75964 25.0125 6.55146 25.1994 6.53109C25.1994 6.53109 24.8882 6.2129 24.49 6.40887C24.3295 6.49483 24.2048 6.63357 24.1378 6.80079C24.1378 6.80079 24.5198 6.79387 24.7838 6.56327C24.7838 6.56572 24.6429 6.78164 24.1307 6.87413Z" fill="#13A538"/>
<path d="M24.9637 7.16982C24.9637 7.16982 25.1709 7.24112 25.3192 7.16575C25.4675 7.09038 25.5753 6.94575 25.705 6.93149C25.705 6.93149 25.4891 6.71108 25.2127 6.84756C25.1017 6.90706 25.0153 7.00292 24.9687 7.11849C24.9687 7.11849 25.2334 7.11401 25.4166 6.95553C25.4166 6.95553 25.3188 7.10464 24.9637 7.16982Z" fill="#13A538"/>
<path d="M22.6668 6.40185C22.6668 6.40185 22.4012 6.27963 22.3311 6.07308C22.2611 5.86652 22.2951 5.629 22.1844 5.497C22.1844 5.497 22.5988 5.48396 22.7335 5.86693C22.7832 6.02565 22.7747 6.19652 22.7094 6.3497C22.7094 6.3497 22.4608 6.10282 22.438 5.78259C22.438 5.78259 22.3891 6.01482 22.6668 6.40185Z" fill="#13A538"/>
<path d="M22.03 6.59781C22.03 6.59781 21.8104 6.55422 21.7205 6.41244C21.6305 6.27067 21.6123 6.08652 21.5062 6.00993C21.5062 6.00993 21.8124 5.92844 21.9819 6.18796C22.0478 6.2973 22.0727 6.42586 22.0524 6.55137C22.0524 6.55137 21.8224 6.41163 21.7466 6.17737C21.7466 6.17737 21.7511 6.35907 22.03 6.59781Z" fill="#13A538"/>
</g>
<defs>
<clipPath id="clip0_0_48">
<rect width="19" height="22" fill="white" transform="translate(7 5)"/>
</clipPath>
</defs>
</svg>
