<svg width="164" height="164" viewBox="0 0 164 164" fill="none" xmlns="http://www.w3.org/2000/svg">
<g filter="url(#filter0_d_1_314)">
<circle cx="82" cy="82" r="40" fill="white"/>
<circle cx="82" cy="82" r="39.5" stroke="#FFA32B" stroke-opacity="0.2"/>
</g>
<g clip-path="url(#clip0_1_314)">
<path fill-rule="evenodd" clip-rule="evenodd" d="M92.4671 85.532C88.6369 85.532 85.5319 88.6369 85.5319 92.4672C85.5319 96.2974 88.6369 99.4023 92.4671 99.4023C96.2973 99.4023 99.4022 96.2974 99.4022 92.4672C99.4022 88.637 96.2973 85.532 92.4671 85.532ZM96.5148 90.7262L91.611 95.6299C91.1665 96.0745 90.4319 96.0046 90.0751 95.4936L88.0119 92.8973C87.6672 92.4635 87.7391 91.8323 88.1729 91.4874C88.6068 91.1425 89.2379 91.2146 89.5829 91.6484L90.9849 93.4127L95.0931 89.3045C95.4856 88.9119 96.1223 88.9119 96.5148 89.3045C96.9072 89.697 96.9072 90.3336 96.5148 90.7262ZM66.753 69.9742L68.8078 69.8092C65.7313 73.1363 64.0352 77.4679 64.0352 82C64.0352 85.6669 65.1452 89.2253 67.2377 92.2374C67.4149 92.4922 67.7652 92.5552 68.0199 92.378C68.2746 92.2008 68.3378 91.8506 68.1605 91.5958C66.1956 88.7674 65.1602 85.4431 65.1602 82C65.1602 77.7739 66.7226 73.7474 69.5763 70.631L69.4155 72.6364C69.3911 72.9459 69.6224 73.2164 69.9318 73.2407C70.2412 73.265 70.5118 73.0338 70.5361 72.7243L70.8202 69.1823C70.8528 68.8381 70.5642 68.5413 70.2168 68.5686L66.6652 68.8536C66.3558 68.8779 66.1246 69.1484 66.1488 69.4579C66.1731 69.7672 66.4436 69.9984 66.753 69.9742ZM72.4042 68.1606C75.2326 66.1957 78.557 65.1602 82 65.1602C86.2261 65.1602 90.2526 66.7226 93.369 69.5763L91.3637 69.4155C91.0543 69.3912 90.7837 69.6223 90.7594 69.9318C90.7351 70.2412 90.9663 70.5119 91.2758 70.5361L94.8178 70.8202C95.162 70.8528 95.4587 70.5642 95.4315 70.2168L95.1465 66.6653C95.1222 66.3558 94.8517 66.1247 94.5423 66.1489C94.2328 66.1731 94.0016 66.4436 94.0259 66.7532L94.1909 68.8078C90.8639 65.7314 86.532 64.0352 82 64.0352C78.3332 64.0352 74.7747 65.1452 71.7626 67.2378C71.5079 67.4149 71.4448 67.7652 71.622 68.02C71.7992 68.2748 72.1495 68.3377 72.4042 68.1606ZM95.8393 72.4042C95.6621 72.1494 95.7252 71.7993 95.98 71.6221C96.2348 71.4448 96.585 71.5079 96.7622 71.7627C98.8548 74.7747 99.9648 78.3332 99.9648 82C99.9648 84.0164 99.6314 85.9567 99.0166 87.7689C98.7584 87.4095 98.4714 87.0721 98.1587 86.7602C98.6019 85.252 98.8399 83.6545 98.8399 82C98.8398 78.5569 97.8044 75.2326 95.8393 72.4042ZM87.7688 99.0167C87.4093 98.7583 87.0717 98.4711 86.7597 98.1584C85.2522 98.6018 83.6549 98.8398 82 98.8398C77.7739 98.8398 73.7475 97.2774 70.631 94.4237L72.6363 94.5846C72.9457 94.6089 73.2163 94.3777 73.2406 94.0682C73.2649 93.7588 73.0337 93.4882 72.7242 93.464L69.1822 93.1798C68.838 93.1473 68.5413 93.4358 68.5685 93.7833L68.8535 97.3348C68.8778 97.6442 69.1483 97.8754 69.4577 97.8512C69.7672 97.827 69.9984 97.5564 69.9741 97.2469L69.8091 95.1922C73.1363 98.2688 77.468 99.9648 82 99.9648C83.9626 99.9648 85.9101 99.647 87.7688 99.0167ZM91.3223 80.1314C91.0754 78.8942 90.5888 77.7435 89.9125 76.7301L91.2391 75.4036L88.5964 72.761L87.27 74.0875C86.2565 73.4113 85.106 72.9244 83.8685 72.6778V70.8026H80.1314V72.6778C78.894 72.9245 77.7434 73.4111 76.73 74.0875L75.4034 72.761L72.7609 75.4036L74.0874 76.73C73.411 77.7435 72.9243 78.8941 72.6775 80.1314H70.8026V83.8686H72.6775C72.9243 85.1059 73.411 86.2567 74.0874 87.2701L72.7609 88.5965L75.4034 91.2391L76.73 89.9127C77.7435 90.589 78.894 91.0757 80.1314 91.3225V93.1974H83.8685V91.3225C84.0856 91.2791 84.2999 91.2284 84.5114 91.1707C85.0632 87.758 87.7578 85.0634 91.1706 84.5114C91.2284 84.2999 91.2789 84.0856 91.3223 83.8686H93.1974V80.1314H91.3223ZM81.9999 87.8228C78.7842 87.8228 76.1772 85.2159 76.1772 82.0001C76.1772 78.7843 78.7841 76.1774 81.9999 76.1774C85.2156 76.1774 87.8226 78.7843 87.8226 82.0001C87.8226 85.2159 85.2155 87.8228 81.9999 87.8228Z" fill="#142653"/>
</g>
<defs>
<filter id="filter0_d_1_314" x="0" y="0" width="164" height="164" filterUnits="userSpaceOnUse" color-interpolation-filters="sRGB">
<feFlood flood-opacity="0" result="BackgroundImageFix"/>
<feColorMatrix in="SourceAlpha" type="matrix" values="0 0 0 0 0 0 0 0 0 0 0 0 0 0 0 0 0 0 127 0" result="hardAlpha"/>
<feOffset/>
<feGaussianBlur stdDeviation="21"/>
<feComposite in2="hardAlpha" operator="out"/>
<feColorMatrix type="matrix" values="0 0 0 0 1 0 0 0 0 0.806525 0 0 0 0 0.554167 0 0 0 0.13 0"/>
<feBlend mode="normal" in2="BackgroundImageFix" result="effect1_dropShadow_1_314"/>
<feBlend mode="normal" in="SourceGraphic" in2="effect1_dropShadow_1_314" result="shape"/>
</filter>
<clipPath id="clip0_1_314">
<rect width="36" height="36" fill="white" transform="translate(64 64)"/>
</clipPath>
</defs>
</svg>
