<svg width="164" height="164" viewBox="0 0 164 164" fill="none" xmlns="http://www.w3.org/2000/svg">
<g filter="url(#filter0_d_1_323)">
<circle cx="82" cy="82" r="40" fill="white"/>
<circle cx="82" cy="82" r="39.5" stroke="#FFA32B" stroke-opacity="0.2"/>
</g>
<path d="M79.8179 73.4013C82.0546 75.2223 85.6374 73.4923 85.5818 70.5671C85.5822 69.9587 85.4275 69.3603 85.1324 68.8283C84.8372 68.2963 84.4114 67.8483 83.895 67.5266C83.3787 67.2049 82.7889 67.0201 82.1813 66.9896C81.5736 66.9591 80.9683 67.084 80.4223 67.3525C79.8764 67.6209 79.4079 68.0241 79.061 68.5239C78.7142 69.0237 78.5004 69.6036 78.4399 70.209C78.3794 70.8144 78.4742 71.4251 78.7153 71.9837C78.9564 72.5423 79.3359 73.0301 79.8179 73.4013Z" fill="#142653"/>
<path d="M78.3784 80.1887H85.6212C86.0531 80.19 86.4779 80.0786 86.8536 79.8656C87.2293 79.6526 87.543 79.3453 87.7637 78.9741C88.9243 76.9892 86.9325 74.8881 85.3007 73.9187C84.4215 74.787 83.2356 75.2739 81.9998 75.2739C80.7641 75.2739 79.5781 74.787 78.6989 73.9187C77.0664 74.8872 75.0756 76.9899 76.2358 78.9741C76.4566 79.3453 76.7703 79.6526 77.146 79.8656C77.5217 80.0786 77.9465 80.19 78.3784 80.1887Z" fill="#142653"/>
<path d="M89.4451 90.2264C91.6817 92.0474 95.2646 90.3174 95.209 87.3922C95.2093 86.7838 95.0546 86.1854 94.7595 85.6534C94.4644 85.1214 94.0385 84.6734 93.5222 84.3517C93.0058 84.03 92.416 83.8451 91.8084 83.8147C91.2008 83.7842 90.5954 83.9091 90.0495 84.1775C89.5036 84.446 89.035 84.8492 88.6882 85.349C88.3413 85.8488 88.1275 86.4287 88.067 87.0341C88.0066 87.6394 88.1013 88.2502 88.3425 88.8088C88.5836 89.3673 88.9631 89.8552 89.4451 90.2264Z" fill="#142653"/>
<path d="M97.4415 93.3305C96.9623 92.4393 96.2851 91.6698 95.462 91.0812C95.009 90.717 94.9032 90.7076 94.4948 91.1207C93.6706 91.7517 92.6612 92.0931 91.6231 92.0921C90.5851 92.091 89.5764 91.7475 88.7534 91.1149C88.3588 90.7038 88.2304 90.7227 87.7918 91.0813C86.3931 92.1146 84.7872 94.0226 85.863 95.7991C86.0837 96.1704 86.3974 96.4777 86.7731 96.6907C87.1489 96.9037 87.5736 97.015 88.0055 97.0137H95.2484C95.6789 97.0094 96.1011 96.8944 96.4743 96.6798C96.8475 96.4651 97.1592 96.1581 97.3795 95.7881C97.5998 95.4182 97.7212 94.9978 97.732 94.5674C97.7429 94.137 97.6428 93.7111 97.4415 93.3305Z" fill="#142653"/>
<path d="M70.1908 90.2264C72.4275 92.0474 76.0103 90.3174 75.9547 87.3922C75.955 86.7838 75.8004 86.1854 75.5052 85.6534C75.2101 85.1214 74.7842 84.6734 74.2679 84.3517C73.7515 84.03 73.1617 83.8451 72.5541 83.8147C71.9465 83.7842 71.3412 83.9091 70.7952 84.1775C70.2493 84.446 69.7808 84.8492 69.4339 85.349C69.087 85.8488 68.8733 86.4287 68.8128 87.0341C68.7523 87.6394 68.8471 88.2502 69.0882 88.8088C69.3293 89.3673 69.7088 89.8552 70.1908 90.2264Z" fill="#142653"/>
<path d="M76.2078 91.081C75.7547 90.7169 75.6489 90.7074 75.2406 91.1205C74.4182 91.7558 73.4081 92.0999 72.3689 92.0989C71.3297 92.0978 70.3203 91.7517 69.4991 91.1148C69.1045 90.7037 68.9761 90.7226 68.5375 91.0812C67.7144 91.6697 67.0372 92.4391 66.5581 93.3304C66.3567 93.7109 66.2567 94.1369 66.2675 94.5673C66.2784 94.9977 66.3998 95.4181 66.6201 95.7881C66.8403 96.158 67.1521 96.465 67.5253 96.6797C67.8986 96.8943 68.3207 97.0093 68.7513 97.0136L75.9941 97.0137C76.4246 97.0093 76.8468 96.8943 77.22 96.6797C77.5932 96.465 77.9049 96.158 78.1252 95.788C78.3455 95.4181 78.4669 94.9977 78.4777 94.5673C78.4885 94.1369 78.3885 93.7109 78.1871 93.3304C77.708 92.4391 77.0309 91.6696 76.2078 91.081Z" fill="#142653"/>
<path d="M85.6269 87.7578C85.7004 87.6287 85.7198 87.4757 85.6808 87.3324C85.6418 87.1891 85.5476 87.067 85.4188 86.993L83.7374 86.0201C83.8203 85.5961 83.747 85.1564 83.5309 84.7822C83.3149 84.4081 82.9708 84.1247 82.5621 83.9845V82.0444C82.5616 81.8956 82.5022 81.753 82.3968 81.648C82.2914 81.5429 82.1486 81.4839 81.9998 81.4839C81.8509 81.4839 81.7082 81.5429 81.6028 81.648C81.4974 81.753 81.4379 81.8956 81.4374 82.0444V83.9845C81.0288 84.1247 80.6846 84.4081 80.4686 84.7823C80.2526 85.1564 80.1793 85.5961 80.2622 86.0202L78.5808 86.993C78.5169 87.0299 78.4609 87.0791 78.416 87.1376C78.3712 87.1962 78.3383 87.263 78.3192 87.3343C78.3001 87.4056 78.2953 87.4799 78.305 87.553C78.3146 87.6262 78.3386 87.6967 78.3755 87.7606C78.4125 87.8245 78.4616 87.8804 78.5202 87.9253C78.5787 87.9702 78.6455 88.0031 78.7168 88.0222C78.7881 88.0412 78.8624 88.0461 78.9356 88.0364C79.0087 88.0267 79.0792 88.0028 79.1431 87.9658L80.8245 86.993C81.1509 87.2754 81.5682 87.4308 81.9998 87.4308C82.4314 87.4308 82.8486 87.2754 83.1751 86.993L84.8564 87.9658C84.9863 88.0399 85.1402 88.0596 85.2846 88.0207C85.4289 87.9817 85.552 87.8872 85.6269 87.7578Z" fill="#142653"/>
<defs>
<filter id="filter0_d_1_323" x="0" y="0" width="164" height="164" filterUnits="userSpaceOnUse" color-interpolation-filters="sRGB">
<feFlood flood-opacity="0" result="BackgroundImageFix"/>
<feColorMatrix in="SourceAlpha" type="matrix" values="0 0 0 0 0 0 0 0 0 0 0 0 0 0 0 0 0 0 127 0" result="hardAlpha"/>
<feOffset/>
<feGaussianBlur stdDeviation="21"/>
<feComposite in2="hardAlpha" operator="out"/>
<feColorMatrix type="matrix" values="0 0 0 0 1 0 0 0 0 0.806525 0 0 0 0 0.554167 0 0 0 0.13 0"/>
<feBlend mode="normal" in2="BackgroundImageFix" result="effect1_dropShadow_1_323"/>
<feBlend mode="normal" in="SourceGraphic" in2="effect1_dropShadow_1_323" result="shape"/>
</filter>
</defs>
</svg>
