<svg width="164" height="164" viewBox="0 0 164 164" fill="none" xmlns="http://www.w3.org/2000/svg">
<g filter="url(#filter0_d_1_339)">
<circle cx="82" cy="82" r="40" fill="white"/>
<circle cx="82" cy="82" r="39.5" stroke="#FFA32B" stroke-opacity="0.2"/>
</g>
<path d="M99.421 83.3106C99.4766 84.6397 99.0028 85.9366 98.1034 86.9168C97.204 87.8969 95.9525 88.4804 94.6236 88.539C94.5458 88.5426 94.4683 88.5444 94.3908 88.5444C94.0377 88.5442 93.6857 88.506 93.3407 88.4304C92.3172 90.0107 90.9752 91.3599 89.4004 92.3918C87.8256 93.4237 86.0528 94.1156 84.1954 94.4232C83.9757 95.0686 83.5374 95.617 82.9562 95.9735C82.3751 96.3301 81.6877 96.4724 81.0127 96.3758C80.3378 96.2793 79.7178 95.95 79.26 95.4448C78.8021 94.9396 78.5351 94.2904 78.5052 93.6092C78.4752 92.9281 78.6842 92.2579 79.096 91.7145C79.5078 91.1711 80.0965 90.7887 80.7603 90.6333C81.4241 90.4779 82.1214 90.5593 82.7316 90.8635C83.3418 91.1676 83.8265 91.6754 84.102 92.2991C86.717 91.8155 89.0795 90.4295 90.7775 88.3828C92.4756 86.3361 93.4016 83.7585 93.3941 81.0991C93.3941 74.8163 88.2828 69.705 82 69.705C75.7172 69.705 70.6059 74.8163 70.6059 81.0991C70.6055 83.0418 71.102 84.9524 72.0482 86.6491C72.0803 86.7051 72.1043 86.7653 72.1197 86.828C72.2111 87.082 72.2013 87.3615 72.0924 87.6085C71.9835 87.8555 71.7838 88.0512 71.5346 88.155C70.9245 88.4118 70.2692 88.544 69.6072 88.5439C69.5293 88.5439 69.4512 88.5421 69.373 88.5385C68.0446 88.4791 66.7939 87.8954 65.8952 86.9153C64.9966 85.9351 64.5232 84.6387 64.579 83.3101C64.6015 82.7803 64.5889 82.3076 64.5767 81.8505C64.5653 81.4201 64.5534 80.975 64.573 80.5106C64.6313 79.2134 65.1893 77.989 66.1302 77.094C67.071 76.199 68.3216 75.7027 69.6202 75.7092C71.7053 70.9383 76.4692 67.5956 82 67.5956C87.5308 67.5956 92.2947 70.9383 94.3799 75.7092C95.6786 75.7018 96.9296 76.1976 97.8706 77.0927C98.8116 77.9877 99.3694 79.2124 99.427 80.5098C99.4466 80.9749 99.4348 81.4199 99.4232 81.8503C99.4111 82.3075 99.3986 82.7804 99.421 83.3106ZM90.8457 81.0991C90.8452 82.4543 90.5334 83.7912 89.9345 85.0068C89.3355 86.2224 88.4654 87.2843 87.3911 88.1104C86.3169 88.9365 85.0673 89.5049 83.7386 89.7717C82.41 90.0385 81.0378 89.9965 79.7279 89.6491L76.1475 91.7168C75.9669 91.8211 75.7594 91.8695 75.5512 91.8559C75.343 91.8422 75.1436 91.7672 74.9781 91.6402C74.8126 91.5132 74.6884 91.34 74.6214 91.1424C74.5543 90.9449 74.5474 90.7319 74.6014 90.5304L75.5164 87.1169C74.0011 85.4789 73.1579 83.3305 73.1547 81.0991C73.1547 76.2203 77.1225 72.2514 82 72.2514C86.8775 72.2514 90.8457 76.2203 90.8457 81.0991ZM79.5408 81.0991C79.5408 80.8194 79.4297 80.5511 79.2319 80.3533C79.0341 80.1555 78.7659 80.0444 78.4861 80.0444H78.4844C78.2759 80.0448 78.0721 80.107 77.899 80.2231C77.7258 80.3392 77.5909 80.5041 77.5114 80.6968C77.4319 80.8896 77.4113 81.1016 77.4522 81.3061C77.4931 81.5105 77.5937 81.6983 77.7413 81.8456C77.8888 81.9929 78.0768 82.0931 78.2813 82.1337C78.4858 82.1742 78.6978 82.1532 78.8904 82.0733C79.083 81.9934 79.2476 81.8582 79.3634 81.6848C79.4792 81.5114 79.541 81.3076 79.541 81.0991H79.5408ZM83.0549 81.0991C83.0548 81.0646 83.0529 81.0301 83.0493 80.9957C83.046 80.9613 83.0408 80.927 83.0339 80.8931C83.0276 80.8593 83.0191 80.8259 83.0085 80.7932C82.9987 80.7602 82.9868 80.7278 82.9741 80.6955C82.9615 80.6632 82.946 80.6329 82.9298 80.6027C82.9138 80.5723 82.8962 80.5427 82.8771 80.5141C82.8579 80.4852 82.8372 80.4573 82.8151 80.4304C82.7935 80.4035 82.7703 80.378 82.7456 80.3538C82.7217 80.3292 82.6957 80.306 82.669 80.2835C82.6422 80.2624 82.614 80.2413 82.5852 80.2223C82.5566 80.2032 82.5271 80.1856 82.4967 80.1696C82.4664 80.1534 82.4348 80.1386 82.4031 80.1253C82.3714 80.112 82.3391 80.1005 82.3061 80.0908C82.2404 80.0697 82.1725 80.056 82.1036 80.05C82.0003 80.0401 81.8962 80.0451 81.7943 80.0648C81.7604 80.0717 81.7268 80.0804 81.6938 80.0908C81.6608 80.1005 81.6284 80.112 81.5968 80.1253C81.5651 80.1386 81.5335 80.1534 81.5032 80.1696C81.473 80.1857 81.4435 80.2033 81.4146 80.2223C81.3857 80.2413 81.3576 80.2624 81.3317 80.2835C81.3043 80.306 81.279 80.3292 81.2543 80.3538C81.2297 80.378 81.2064 80.4036 81.1847 80.4304C81.1629 80.4573 81.1425 80.4852 81.1236 80.5141C81.1042 80.5427 81.0864 80.5723 81.0701 80.6027C81.0539 80.6328 81.0393 80.6638 81.0265 80.6955C81.0131 80.7275 81.0014 80.7601 80.9913 80.7932C80.9815 80.8256 80.9731 80.8593 80.9661 80.8931C80.9591 80.927 80.9539 80.9613 80.9505 80.9957C80.9471 81.0302 80.9456 81.0646 80.9456 81.0991C80.9456 81.1336 80.9471 81.1687 80.9505 81.2032C80.954 81.2374 80.9592 81.2714 80.9661 81.3051C80.9731 81.3389 80.9815 81.3726 80.9913 81.4057C81.0014 81.4386 81.0131 81.471 81.0265 81.5027C81.0393 81.5346 81.0539 81.5658 81.0701 81.5962C81.0862 81.6264 81.1046 81.656 81.1236 81.6848C81.1425 81.7135 81.1629 81.7412 81.1847 81.7678C81.2066 81.7947 81.2298 81.8205 81.2543 81.8451C81.279 81.869 81.3043 81.8929 81.3317 81.9147C81.3581 81.9367 81.3858 81.9571 81.4146 81.9759C81.4435 81.9949 81.4729 82.0132 81.5032 82.0293C81.5643 82.0612 81.6281 82.0875 81.6938 82.1081C81.7268 82.1179 81.7605 82.1264 81.7943 82.1334C81.8621 82.1473 81.9311 82.1541 82.0003 82.1538C82.2797 82.153 82.5475 82.0421 82.7456 81.8451C82.7942 81.7958 82.8382 81.7421 82.8771 81.6848C82.8961 81.656 82.9136 81.6264 82.9298 81.5962C82.946 81.566 82.9608 81.5343 82.9741 81.5027C82.9875 81.471 82.9987 81.438 83.0085 81.4057C83.019 81.3727 83.0275 81.3391 83.0339 81.3051C83.0408 81.2714 83.0459 81.2374 83.0493 81.2032C83.0529 81.1685 83.0547 81.1338 83.0547 81.099L83.0549 81.0991ZM86.5705 81.0991C86.5705 80.8194 86.4594 80.5511 86.2616 80.3533C86.0638 80.1555 85.7956 80.0444 85.5158 80.0444H85.5138C85.3053 80.0448 85.1016 80.107 84.9284 80.2231C84.7552 80.3393 84.6204 80.5041 84.5409 80.6969C84.4613 80.8897 84.4407 81.1016 84.4817 81.3061C84.5226 81.5106 84.6232 81.6983 84.7708 81.8456C84.9184 81.9929 85.1063 82.0931 85.3108 82.1337C85.5154 82.1742 85.7273 82.1532 85.9199 82.0733C86.1125 81.9934 86.2771 81.8582 86.3929 81.6848C86.5087 81.5114 86.5705 81.3076 86.5705 81.0991Z" fill="#142653"/>
<defs>
<filter id="filter0_d_1_339" x="0" y="0" width="164" height="164" filterUnits="userSpaceOnUse" color-interpolation-filters="sRGB">
<feFlood flood-opacity="0" result="BackgroundImageFix"/>
<feColorMatrix in="SourceAlpha" type="matrix" values="0 0 0 0 0 0 0 0 0 0 0 0 0 0 0 0 0 0 127 0" result="hardAlpha"/>
<feOffset/>
<feGaussianBlur stdDeviation="21"/>
<feComposite in2="hardAlpha" operator="out"/>
<feColorMatrix type="matrix" values="0 0 0 0 1 0 0 0 0 0.806525 0 0 0 0 0.554167 0 0 0 0.13 0"/>
<feBlend mode="normal" in2="BackgroundImageFix" result="effect1_dropShadow_1_339"/>
<feBlend mode="normal" in="SourceGraphic" in2="effect1_dropShadow_1_339" result="shape"/>
</filter>
</defs>
</svg>
