<svg width="48" height="48" viewBox="0 0 48 48" fill="none" xmlns="http://www.w3.org/2000/svg">
<circle cx="24" cy="24" r="24" fill="#FFFCF3"/>
<path d="M33.6014 33.6007V26.5687C33.6014 23.1127 32.8574 20.4727 28.8254 20.4727C26.8814 20.4727 25.5854 21.5287 25.0574 22.5367H25.0094V20.7847H21.1934V33.6007H25.1774V27.2407C25.1774 25.5607 25.4894 23.9527 27.5534 23.9527C29.5934 23.9527 29.6174 25.8487 29.6174 27.3367V33.5767H33.6014V33.6007Z" fill="#FFA32B"/>
<path d="M14.7129 20.7852H18.6969V33.6012H14.7129V20.7852Z" fill="#FFA32B"/>
<path d="M16.7044 14.4004C15.4324 14.4004 14.4004 15.4324 14.4004 16.7044C14.4004 17.9764 15.4324 19.0324 16.7044 19.0324C17.9764 19.0324 19.0084 17.9764 19.0084 16.7044C19.0084 15.4324 17.9764 14.4004 16.7044 14.4004Z" fill="#FFA32B"/>
</svg>
