<svg width="48" height="48" viewBox="0 0 48 48" fill="none" xmlns="http://www.w3.org/2000/svg">
<circle cx="24" cy="24" r="24" fill="#FFFCF3"/>
<path d="M24.326 12C17.7482 12 14.25 16.2152 14.25 20.8114C14.25 22.943 15.4411 25.6011 17.3476 26.4441C17.6372 26.5747 17.7947 26.5192 17.8592 26.2506C17.9162 26.0466 18.1667 25.0641 18.2882 24.6006C18.3257 24.4521 18.3062 24.3231 18.1862 24.1835C17.5531 23.4515 17.0506 22.118 17.0506 20.8669C17.0506 17.6613 19.5992 14.5486 23.9359 14.5486C27.6861 14.5486 30.3097 16.9847 30.3097 20.4694C30.3097 24.4071 28.2261 27.1312 25.5185 27.1312C24.0199 27.1312 22.9039 25.9551 23.2579 24.5001C23.6854 22.7675 24.524 20.9044 24.524 19.6548C24.524 18.5343 23.8909 17.6073 22.5979 17.6073C21.0723 17.6073 19.8348 19.1178 19.8348 21.1459C19.8348 22.4345 20.2908 23.3045 20.2908 23.3045C20.2908 23.3045 18.7817 29.4008 18.5012 30.5393C18.0272 32.4669 18.5657 35.5886 18.6122 35.8571C18.6407 36.0056 18.8072 36.0521 18.9002 35.9306C19.0487 35.7356 20.8728 33.1329 21.3843 31.2519C21.5703 30.5663 22.3339 27.7867 22.3339 27.7867C22.8364 28.6943 24.287 29.4548 25.832 29.4548C30.4282 29.4548 33.7494 25.4151 33.7494 20.4019C33.7329 15.5957 29.6197 12 24.326 12Z" fill="#FFA32B"/>
</svg>
