<svg width="24" height="24" viewBox="0 0 24 24" fill="none" xmlns="http://www.w3.org/2000/svg">
<path fill-rule="evenodd" clip-rule="evenodd" d="M12.25 3.75027C7.69329 3.75027 4 7.44356 4 12.0003C4 16.5561 7.69335 20.2503 12.25 20.2503C16.8067 20.2503 20.5 16.5561 20.5 12.0003C20.5 7.44356 16.8067 3.75027 12.25 3.75027ZM2.5 12.0003C2.5 6.61514 6.86487 2.25027 12.25 2.25027C17.6351 2.25027 22 6.61514 22 12.0003C22 17.3844 17.6352 21.7503 12.25 21.7503C6.86481 21.7503 2.5 17.3844 2.5 12.0003Z" fill="#4F5B78"/>
<path fill-rule="evenodd" clip-rule="evenodd" d="M12.25 7.54129C12.6642 7.54129 13 7.87707 13 8.29129V8.35453C13 8.76874 12.6642 9.10453 12.25 9.10453C11.8358 9.10453 11.5 8.76874 11.5 8.35453V8.29129C11.5 7.87707 11.8358 7.54129 12.25 7.54129ZM12.2557 10.6439C12.6699 10.6439 13.0057 10.9797 13.0057 11.3939V15.6935C13.0057 16.1077 12.6699 16.4435 12.2557 16.4435C11.8415 16.4435 11.5057 16.1077 11.5057 15.6935V11.3939C11.5057 10.9797 11.8415 10.6439 12.2557 10.6439Z" fill="#4F5B78"/>
</svg>
