<svg width="32" height="32" viewBox="0 0 32 32" fill="none" xmlns="http://www.w3.org/2000/svg">
<path fill-rule="evenodd" clip-rule="evenodd" d="M7.73491 4.23447C8.99013 3.33529 10.6532 3 12.3866 3H20.2755C22.0663 3 23.742 3.35979 24.9903 4.31553C26.2854 5.30708 26.9692 6.82255 26.9692 8.78148C26.9692 8.7816 26.9692 8.78136 26.9692 8.78148L26.9758 26.8152C26.9758 27.1937 26.8768 27.5616 26.6935 27.8857C26.1023 28.9347 24.7736 29.3021 23.7274 28.7132L23.726 28.7124L16.3662 24.5551L8.93306 28.7219C8.60799 28.9036 8.24047 29 7.86678 29C6.6633 29 5.68834 28.0241 5.69013 26.8212C5.69013 26.8216 5.69013 26.8208 5.69013 26.8212V8.55352C5.69013 6.63139 6.42515 5.17272 7.73491 4.23447ZM8.89962 5.86035C8.17521 6.37928 7.69013 7.19736 7.69013 8.55352V26.824C7.68993 26.9205 7.76815 27 7.86678 27C7.89765 27 7.92809 26.9923 7.95575 26.9768C7.95591 26.9768 7.95559 26.9769 7.95575 26.9768L15.879 22.5353C16.1838 22.3644 16.5556 22.3651 16.8598 22.5369L24.7084 26.9703C24.7086 26.9704 24.7083 26.9703 24.7084 26.9703C24.7956 27.0192 24.904 26.9876 24.9512 26.9036L24.9524 26.9015C24.9686 26.8731 24.9758 26.8441 24.9758 26.8157L24.9692 8.7822C24.9692 7.32423 24.4863 6.44853 23.7744 5.90349C23.0158 5.32259 21.8446 5 20.2755 5H12.3866C10.8637 5 9.67857 5.30233 8.89962 5.86035ZM21.1762 10.6644C21.5666 11.055 21.5666 11.6881 21.1759 12.0786L15.6611 17.5921C15.2707 17.9825 14.6376 17.9825 14.2471 17.5921L11.4891 14.8355C11.0985 14.4451 11.0983 13.8119 11.4888 13.4212C11.8792 13.0306 12.5124 13.0305 12.903 13.4209L14.954 15.4709L19.7619 10.6642C20.1524 10.2737 20.7856 10.2738 21.1762 10.6644Z" fill="#FFA32B"/>
</svg>
