<svg width="32" height="32" viewBox="0 0 32 32" fill="none" xmlns="http://www.w3.org/2000/svg">
<circle cx="16" cy="16" r="16" fill="#FFA32B"/>
<path fill-rule="evenodd" clip-rule="evenodd" d="M14.012 14.5701C14.8274 16.9495 17.1738 16.9495 17.9886 14.5694L17.9893 14.5735C18.9357 14.6231 19.4158 12.5759 18.2645 13.0037C18.2519 13.2908 18.2229 13.5595 18.1797 13.8096C16.9807 13.7615 15.7078 12.9056 14.361 11.2421C14.132 11.5826 13.9236 12.1699 13.736 13.0037C12.5847 12.5759 13.0647 14.6231 14.0113 14.5735L14.012 14.5701ZM17.7814 16.8412C17.907 16.8724 18.0387 16.9031 18.1742 16.9339V16.9341V19.0063C18.114 19.0352 18.0594 19.0743 18.0126 19.121L18.0116 19.1221C17.9053 19.2284 17.8395 19.3751 17.8395 19.5366C17.8395 19.6983 17.9053 19.8448 18.0116 19.9512L18.0126 19.9523C18.1189 20.0585 18.2656 20.1244 18.4272 20.1244C18.5888 20.1244 18.7355 20.0585 18.8419 19.9523L18.8429 19.9512C18.9492 19.8448 19.0151 19.6983 19.0151 19.5366C19.0151 19.3743 18.9492 19.2273 18.8428 19.121H18.8419C18.795 19.0743 18.7404 19.0354 18.6801 19.0064V17.0495C19.4998 17.2416 20.3716 17.4897 20.9104 18.0009C21.8684 18.9104 22.0869 20.4821 22.3442 21.8596C21.9736 22.3455 21.4049 22.6236 20.8114 22.6323L20.8352 22.6318L20.6047 19.8874C20.5931 19.7483 20.4711 19.6448 20.3319 19.6563C20.1927 19.6677 20.0892 19.7899 20.1007 19.929L20.3233 22.578L20.3226 22.5777C19.9661 23.2309 18.4091 23.7191 16.5208 23.7957V21.7675L16.0501 20.4418L17.7814 16.8412ZM16.0002 23.8063C13.8832 23.8063 12.0668 23.2899 11.678 22.5778L11.9006 19.9289C11.912 19.7898 11.8086 19.6676 11.6694 19.6562C11.5303 19.6447 11.4082 19.7482 11.3968 19.8873L11.1661 22.6317L11.19 22.6322C10.5961 22.6237 10.0272 22.3457 9.65625 21.8595C9.91359 20.482 10.1321 18.9103 11.09 18.0008C11.6288 17.4891 12.5007 17.2416 13.3203 17.0494V18.8577C13.0225 18.8772 12.7533 19.0069 12.5535 19.2064L12.553 19.2071L12.5525 19.2075C12.3355 19.4249 12.2011 19.724 12.2011 20.0528V20.8743C12.2011 21.0138 12.3143 21.1271 12.454 21.1271C12.5937 21.1271 12.7069 21.0138 12.7069 20.8743V20.0528C12.7069 19.8618 12.7843 19.6889 12.9091 19.5641L12.9101 19.5631C13.0348 19.4384 13.2077 19.3609 13.3988 19.3609H13.7478C13.9387 19.3609 14.1117 19.4384 14.2364 19.5631V19.5641C14.3618 19.6895 14.4396 19.8626 14.4396 20.0528V20.8536C14.4396 20.9933 14.5528 21.1066 14.6925 21.1066C14.8322 21.1066 14.9454 20.9933 14.9454 20.8536V20.0528C14.9454 19.7228 14.811 19.4233 14.5941 19.2064L14.5935 19.2071C14.3936 19.0072 14.1242 18.8772 13.8262 18.8577V16.9341V16.9339C13.9619 16.9031 14.0938 16.8727 14.2192 16.8412L16.0002 21.8572V23.8063ZM15.7362 8.82021C15.7362 8.67643 15.8528 8.55993 15.9965 8.55993C16.1403 8.55993 16.2568 8.67646 16.2568 8.82021V9.04102H16.4777C16.6214 9.04102 16.738 9.15759 16.738 9.3013C16.738 9.44509 16.6214 9.56155 16.4777 9.56155H16.2568V9.78246C16.2568 9.92618 16.1403 10.0427 15.9965 10.0427C15.8528 10.0427 15.7362 9.92618 15.7362 9.78246V9.56155H15.5155C15.3717 9.56155 15.2552 9.44509 15.2552 9.3013C15.2552 9.15759 15.3717 9.04102 15.5155 9.04102H15.7362V8.82021ZM13.1129 8.95512C14.9015 7.94074 17.0915 7.94074 18.8802 8.95512L17.8772 10.4083H14.1159L13.1129 8.95512ZM18.4754 16.4695C19.6 15.9315 20.23 15.0521 20.0683 13.8162C19.9374 12.6833 19.437 11.2732 18.6471 10.2093L18.1504 10.9288H13.8428L13.3497 10.2144C12.562 11.2777 12.0629 12.6852 11.9322 13.8162C11.7698 15.0578 12.4299 15.9265 13.5739 16.4582C13.7477 16.4186 13.918 16.3796 14.0819 16.3388C14.1283 16.3247 14.2361 16.2915 14.259 16.2701C14.2813 16.2435 14.2953 16.1698 14.3038 16.0927C14.7475 16.5639 15.333 16.8755 16.0011 16.8754C16.6615 16.8752 17.2513 16.5676 17.6969 16.0936C17.7054 16.1705 17.7194 16.2436 17.7417 16.2701C17.7646 16.2915 17.8723 16.3247 17.9187 16.3388C18.0979 16.3835 18.2847 16.4259 18.4754 16.4695Z" fill="white"/>
</svg>
