<svg width="32" height="32" viewBox="0 0 32 32" fill="none" xmlns="http://www.w3.org/2000/svg">
<circle cx="16" cy="16" r="16" fill="#FFA32B"/>
<g clip-path="url(#clip0_0_289)">
<path d="M21.9076 12.1286C23.0453 12.1286 23.9675 11.2044 23.9675 10.0643C23.9675 8.92421 23.0453 8 21.9076 8C20.7699 8 19.8477 8.92421 19.8477 10.0643C19.8477 11.2044 20.7699 12.1286 21.9076 12.1286Z" fill="white"/>
<path d="M19.2305 19.5742H20.5556V20.9022H19.2305V19.5742Z" fill="white"/>
<path d="M16.8198 12.3515C17.0768 12.123 17.4076 11.9972 17.7512 11.9972C18.0947 11.9972 18.4255 12.123 18.6825 12.3515L19.0519 12.6798V11.5068C19.0519 9.57582 17.4842 8.00488 15.5573 8.00488C13.8694 8.00488 12.4572 9.21029 12.1328 10.8072C12.6634 11.6148 13.5933 13.1934 13.991 14.8662L16.8198 12.3515Z" fill="white"/>
<path d="M23.5322 23.0564H22.886V18.5956L23.1905 18.8662C23.2796 18.9454 23.3904 18.9844 23.5008 18.9843C23.6299 18.9843 23.7585 18.931 23.8509 18.8266C24.0224 18.6329 24.0047 18.3366 23.8114 18.1648L22.4399 16.9456V14.516C22.4399 14.2571 22.2305 14.0471 21.9721 14.0471C21.7137 14.0471 21.5042 14.2571 21.5042 14.516V16.1139L18.0608 13.0527C17.8836 12.8953 17.617 12.8953 17.4398 13.0527L11.6892 18.1648C11.4959 18.3366 11.4783 18.6329 11.6497 18.8266C11.8212 19.0203 12.1169 19.038 12.3101 18.8662L12.6146 18.5955V23.0563H11.1047V21.011C11.3046 20.9498 11.4969 20.8493 11.679 20.7115V19.8847C11.3993 19.8188 11.1437 19.6679 10.9498 19.4489C10.4362 18.8687 10.4894 17.978 11.0683 17.4634L13.1799 15.5863C12.8245 13.314 11.0949 10.9448 11.0132 10.834C10.925 10.7143 10.7854 10.6437 10.6369 10.6437C10.4885 10.6437 10.3489 10.7143 10.2607 10.834C10.1696 10.9575 8.03009 13.8878 8.03009 16.3616C8.03009 17.569 8.27038 18.7115 8.70669 19.5786C9.09156 20.3435 9.59978 20.8369 10.1691 21.011V23.0564H8.46784C8.20947 23.0564 8 23.2663 8 23.5252C8 23.7841 8.20947 23.994 8.46784 24H22.886H23.5322C23.7906 23.994 24 23.7841 24 23.5252C24 23.2663 23.7905 23.0564 23.5322 23.0564ZM18.2954 19.105C18.2954 18.8461 18.5049 18.6362 18.7633 18.6362H21.0241C21.2825 18.6362 21.492 18.8461 21.492 19.105V21.3706C21.492 21.6295 21.2825 21.8394 21.0241 21.8394H18.7633C18.5049 21.8394 18.2954 21.6295 18.2954 21.3706V19.105ZM15.7336 23.0564V19.5738H14.7979V23.0564H13.8622V19.105C13.8622 18.846 14.0717 18.6362 14.3301 18.6362H16.2014C16.4598 18.6362 16.6693 18.8461 16.6693 19.105V23.0564H15.7336Z" fill="white"/>
</g>
<defs>
<clipPath id="clip0_0_289">
<rect width="16" height="16" fill="white" transform="translate(8 8)"/>
</clipPath>
</defs>
</svg>
