<svg width="32" height="32" viewBox="0 0 32 32" fill="none" xmlns="http://www.w3.org/2000/svg">
<circle cx="16" cy="16" r="16" fill="#FFA32B"/>
<g clip-path="url(#clip0_0_321)">
<path d="M12.3478 18.799C12.1257 18.5679 11.7369 18.5392 11.4831 18.7319L11.4765 18.7276L10.9021 19.3019C10.7762 19.4274 10.7072 19.595 10.7072 19.7731C10.6996 20.1318 11.0154 20.4469 11.3737 20.4396C11.5823 20.443 11.768 20.3387 11.9041 20.1854L12.3478 19.7417C12.4408 19.6487 12.5031 19.533 12.529 19.407C12.5755 19.1892 12.5068 18.9557 12.3478 18.799Z" fill="white"/>
<path d="M10.749 16.8463C10.489 16.5863 10.0665 16.5865 9.80625 16.8463C9.74576 16.9071 9.37276 17.2799 9.30371 17.3492C8.70415 17.9999 9.595 18.8911 10.246 18.2919C10.246 18.2919 10.6822 17.8557 10.749 17.789C11.0091 17.5293 11.0091 17.1064 10.749 16.8463Z" fill="white"/>
<path d="M13.7113 20.3193C13.5331 20.3193 13.3656 20.3888 13.2397 20.5147L12.7368 21.0176C12.7344 21.02 12.7321 21.0224 12.7297 21.0251C12.4777 21.2741 12.4815 21.715 12.7368 21.9604C12.9969 22.2201 13.4198 22.2201 13.6795 21.9604L14.1828 21.457C14.5997 21.0412 14.3 20.3171 13.7113 20.3193Z" fill="white"/>
<path d="M18.1832 12.9207C17.1541 13.5696 15.7744 13.4464 14.8788 12.5508L13.7128 11.3853L15.1679 9.93021C13.6051 8.17641 10.857 8.06515 9.19345 9.73998C7.52089 11.4012 7.62811 14.146 9.37822 15.7093C10.6527 14.9969 12.22 15.9919 12.1169 17.4433C12.9608 17.5345 13.6753 18.2994 13.714 19.1435C14.5076 19.1265 15.2959 19.7209 15.4892 20.5048C16.1498 20.3277 16.8903 20.5471 17.3428 21.0705L17.3561 21.0548C18.0121 21.4487 18.7061 20.6397 18.2114 20.0505L18.2125 20.049C18.2023 20.0392 15.5633 17.4001 15.5633 17.4001C15.7707 17.1928 16.188 16.7754 16.3954 16.568L19.0144 19.1871C19.665 19.7865 20.5564 18.8951 19.9567 18.2444L17.3381 15.6253C17.5455 15.418 17.9628 15.0006 18.1702 14.7933C18.7588 15.3818 20.1868 16.8099 20.7892 17.4123C21.0372 17.6707 21.4838 17.6705 21.7319 17.4123C21.9916 17.1522 21.9916 16.7293 21.7319 16.4696L18.1832 12.9207Z" fill="white"/>
<path d="M22.808 9.73969C21.2133 8.14536 18.6186 8.14536 17.0238 9.73969C16.7138 10.05 15.6718 11.0922 15.3789 11.385L15.7124 11.7185C16.2922 12.2983 17.2353 12.2983 17.8147 11.7185L18.231 11.3022C18.4523 11.526 22.5145 15.5813 22.6287 15.7035C24.3746 14.1396 24.4781 11.3987 22.808 9.73969Z" fill="white"/>
<path d="M16.4288 21.816C16.1686 21.5563 15.746 21.556 15.4861 21.816L14.9831 22.319C14.7243 22.567 14.7244 23.0135 14.9831 23.2617C15.2316 23.5199 15.6775 23.5197 15.9258 23.2617L16.4288 22.7587C16.687 22.5109 16.687 22.0632 16.4288 21.816Z" fill="white"/>
</g>
<defs>
<clipPath id="clip0_0_321">
<rect width="16" height="16" fill="white" transform="translate(8 8)"/>
</clipPath>
</defs>
</svg>
