<svg width="25" height="24" viewBox="0 0 25 24" fill="none" xmlns="http://www.w3.org/2000/svg">
<path fill-rule="evenodd" clip-rule="evenodd" d="M12.239 2C17.609 2 21.977 6.368 21.977 11.738C21.977 14.2715 21.0047 16.5823 19.4136 18.3165L22.5444 21.4407C22.8374 21.7337 22.8384 22.2077 22.5454 22.5007C22.3994 22.6487 22.2064 22.7217 22.0144 22.7217C21.8234 22.7217 21.6314 22.6487 21.4844 22.5027L18.3159 19.343C16.6491 20.6778 14.5357 21.477 12.239 21.477C6.869 21.477 2.5 17.108 2.5 11.738C2.5 6.368 6.869 2 12.239 2ZM12.239 3.5C7.696 3.5 4 7.195 4 11.738C4 16.281 7.696 19.977 12.239 19.977C16.781 19.977 20.477 16.281 20.477 11.738C20.477 7.195 16.781 3.5 12.239 3.5Z" fill="#142653"/>
</svg>
