<svg width="156" height="156" viewBox="0 0 156 156" fill="none" xmlns="http://www.w3.org/2000/svg">
<g filter="url(#filter0_d_1_15)">
<circle cx="78" cy="78" r="36" fill="white"/>
<circle cx="78" cy="78" r="35.5" stroke="#FFA32B" stroke-opacity="0.2"/>
</g>
<path fill-rule="evenodd" clip-rule="evenodd" d="M85.89 92.1372H69.9631C69.7606 92.1372 69.5733 92.0461 69.4417 91.8892C69.3151 91.7322 69.2645 91.5247 69.2999 91.3272C69.4822 90.4109 69.5885 89.53 69.6391 88.6896H74.3068C75.0561 88.6896 75.6585 88.0872 75.6585 87.3379C75.6585 86.5937 75.0561 85.9862 74.3068 85.9862H69.6239C69.2544 81.0451 67.9735 82.6854 68.662 78.5088C68.7734 77.8507 68.8595 77.1368 68.8342 76.4736C68.8241 76.2863 68.6671 76.1395 68.4798 76.1446C68.2925 76.1547 68.1457 76.3116 68.1558 76.4989C68.1811 77.2229 68.1052 77.9772 67.9989 78.691C67.8976 79.3796 67.7609 80.0731 67.604 80.7566H64.3386C63.964 80.7566 63.6653 80.4528 63.6653 80.0782V76.3977V76.3926C63.6906 74.3372 64.4297 72.4894 65.8219 70.9301L70.6365 73.7095C70.844 73.831 71.0718 73.8917 71.3098 73.8917C71.7958 73.8917 72.2413 73.6386 72.4843 73.2184C72.8539 72.5704 72.6362 71.7401 71.9882 71.3706L68.009 69.0721C68.0799 69.0266 68.1558 68.976 68.2317 68.9304C70.1504 67.7154 72.0489 67.1889 72.5197 67.0674C73.0766 66.7029 73.4664 65.7865 73.6183 64.4652C73.6588 64.1209 73.9474 63.8627 74.2916 63.8627H81.5615C81.9058 63.8627 82.1943 64.1209 82.2348 64.4652C82.3867 65.7865 82.7765 66.7029 83.3385 67.0674C83.8093 67.1889 85.7027 67.7154 87.6265 68.9304C87.7227 68.9911 87.8188 69.0519 87.915 69.1177L84.0118 71.3706C83.3688 71.7452 83.1461 72.5704 83.5157 73.2184C83.7587 73.6386 84.2042 73.8917 84.6902 73.8917C84.9281 73.8917 85.161 73.831 85.3635 73.7095L90.0818 70.9858C91.4487 72.5349 92.1676 74.3625 92.1929 76.3926V76.3977V80.0782C92.1929 80.4528 91.8892 80.7566 91.5145 80.7566H88.2542C88.0973 80.0731 87.9606 79.3796 87.8593 78.691C87.753 77.9772 87.672 77.2229 87.7024 76.4989C87.7075 76.3116 87.5607 76.1547 87.3733 76.1446C87.186 76.1395 87.0291 76.2863 87.024 76.4736C86.9987 77.1419 87.0848 77.8608 87.1961 78.524C87.7885 82.0931 86.5228 82.1032 86.2343 85.9862H81.5463C80.8021 85.9862 80.1946 86.5937 80.1946 87.3379C80.1946 88.0872 80.8021 88.6896 81.5463 88.6896H86.214C86.2646 89.5148 86.3709 90.3856 86.5481 91.2867C86.5633 91.3424 86.5684 91.3981 86.5684 91.4589C86.5684 91.8335 86.2646 92.1372 85.89 92.1372Z" fill="#142653"/>
<path fill-rule="evenodd" clip-rule="evenodd" d="M91.388 90.1274C89.849 90.1274 88.5985 88.877 88.5985 87.3379C88.5985 85.7989 89.849 84.5484 91.388 84.5484C92.927 84.5484 94.1775 85.7989 94.1775 87.3379C94.1775 88.877 92.927 90.1274 91.388 90.1274Z" fill="#142653"/>
<path fill-rule="evenodd" clip-rule="evenodd" d="M64.4702 90.1274C62.9312 90.1274 61.6807 88.877 61.6807 87.3379C61.6807 85.7989 62.9312 84.5484 64.4702 84.5484C66.0092 84.5484 67.2597 85.7989 67.2597 87.3379C67.2597 88.877 66.0092 90.1274 64.4702 90.1274Z" fill="#142653"/>
<path fill-rule="evenodd" clip-rule="evenodd" d="M93.2105 70.4137C92.2182 70.4137 91.2918 69.8771 90.7957 69.0164C90.421 68.3684 90.3198 67.6192 90.5172 66.9003C90.7096 66.1814 91.1703 65.579 91.8132 65.2043C92.2385 64.9613 92.7194 64.8297 93.2054 64.8297C94.2028 64.8297 95.1292 65.3663 95.6254 66.227C96.3949 67.5584 95.9392 69.2696 94.6027 70.0391C94.1825 70.2821 93.7016 70.4137 93.2105 70.4137Z" fill="#142653"/>
<path fill-rule="evenodd" clip-rule="evenodd" d="M89.2718 88.0163H81.5463C81.1717 88.0163 80.8679 87.7126 80.8679 87.3379C80.8679 86.9633 81.1717 86.6595 81.5463 86.6595H89.2718C89.6464 86.6595 89.9502 86.9633 89.9502 87.3379C89.9502 87.7126 89.6464 88.0163 89.2718 88.0163Z" fill="#142653"/>
<path fill-rule="evenodd" clip-rule="evenodd" d="M74.3068 88.0163H66.5813C66.2067 88.0163 65.908 87.7126 65.908 87.3379C65.908 86.9633 66.2067 86.6595 66.5813 86.6595H74.3068C74.6815 86.6595 74.9852 86.9633 74.9852 87.3379C74.9852 87.7126 74.6815 88.0163 74.3068 88.0163Z" fill="#142653"/>
<path fill-rule="evenodd" clip-rule="evenodd" d="M84.6902 73.2184C84.4573 73.2184 84.2295 73.0969 84.1029 72.8792C83.9156 72.5552 84.027 72.1401 84.351 71.9528L91.0437 68.09C91.3627 67.9027 91.7778 68.0141 91.9651 68.3381C92.1524 68.6621 92.041 69.0772 91.717 69.2645L85.0243 73.1273C84.918 73.188 84.8016 73.2184 84.6902 73.2184Z" fill="#142653"/>
<path fill-rule="evenodd" clip-rule="evenodd" d="M71.3098 73.2184C71.1984 73.2184 71.082 73.188 70.9757 73.1273L64.2829 69.2645C63.9589 69.0772 63.8475 68.6621 64.0349 68.3381C64.2222 68.0141 64.6373 67.9027 64.9613 68.09L71.649 71.9528C71.973 72.1401 72.0844 72.5552 71.897 72.8792C71.7755 73.0969 71.5477 73.2184 71.3098 73.2184Z" fill="#142653"/>
<path fill-rule="evenodd" clip-rule="evenodd" d="M62.7895 70.4137C62.3034 70.4137 61.8174 70.2821 61.3972 70.0391C60.0607 69.2696 59.6051 67.5584 60.3746 66.227C60.8707 65.3663 61.7972 64.8297 62.7945 64.8297C63.2805 64.8297 63.7615 64.9613 64.1867 65.2043C64.8297 65.579 65.2954 66.1763 65.4878 66.9003C65.6802 67.6192 65.5789 68.3684 65.2094 69.0164C64.7082 69.8771 63.7817 70.4137 62.7895 70.4137Z" fill="#142653"/>
<defs>
<filter id="filter0_d_1_15" x="0" y="0" width="156" height="156" filterUnits="userSpaceOnUse" color-interpolation-filters="sRGB">
<feFlood flood-opacity="0" result="BackgroundImageFix"/>
<feColorMatrix in="SourceAlpha" type="matrix" values="0 0 0 0 0 0 0 0 0 0 0 0 0 0 0 0 0 0 127 0" result="hardAlpha"/>
<feOffset/>
<feGaussianBlur stdDeviation="21"/>
<feComposite in2="hardAlpha" operator="out"/>
<feColorMatrix type="matrix" values="0 0 0 0 1 0 0 0 0 0.806525 0 0 0 0 0.554167 0 0 0 0.13 0"/>
<feBlend mode="normal" in2="BackgroundImageFix" result="effect1_dropShadow_1_15"/>
<feBlend mode="normal" in="SourceGraphic" in2="effect1_dropShadow_1_15" result="shape"/>
</filter>
</defs>
</svg>
