<svg width="24" height="24" viewBox="0 0 24 24" fill="none" xmlns="http://www.w3.org/2000/svg">
<path fill-rule="evenodd" clip-rule="evenodd" d="M4.7927 10.9417C6.3897 9.10075 8.7397 8.12075 11.7837 8.02475L11.7857 5.54275C11.7867 4.98875 12.0997 4.50075 12.6027 4.26775C13.1077 4.03375 13.6827 4.11275 14.1047 4.47175L21.0007 10.3157C21.3127 10.5787 21.4947 10.9627 21.5017 11.3687C21.5087 11.7727 21.3397 12.1587 21.0397 12.4287L14.1317 18.6737C13.7137 19.0507 13.1367 19.1437 12.6217 18.9167C12.1047 18.6877 11.7837 18.1927 11.7837 17.6267V14.4727C7.6797 14.5927 5.0507 16.2217 3.5337 19.5707C3.45271 19.7517 3.2727 19.8647 3.0787 19.8647C3.0557 19.8647 3.0317 19.8627 3.0087 19.8597C2.7877 19.8277 2.6147 19.6547 2.5837 19.4357C2.5547 19.2267 1.8887 14.2897 4.7927 10.9417Z" fill="#FFA32B"/>
</svg>
